<?xml version="1.0"?>
<svg width="320" height="320" xmlns="http://www.w3.org/2000/svg" xmlns:svg="http://www.w3.org/2000/svg" clip-rule="evenodd" fill-rule="evenodd" version="1.1">
 <g class="layer">
  <title>Layer 1</title>
  <g id="svg_1">
   <path d="m381.5,4.5c1.33,0.67 1.33,0.67 0,0z" fill="#f9faf9" id="svg_2"/>
  </g>
  <g id="svg_3">
   <path d="m373.5,5.5c1.33,0.67 1.33,0.67 0,0z" fill="#f9faf9" id="svg_4"/>
  </g>
  <g id="svg_5">
   <path d="m179.5,66.5c1.33,0.67 1.33,0.67 0,0z" fill="#f9faf9" id="svg_6"/>
  </g>
  <g id="svg_7">
   <path d="m60.5,68.5c1.33,0.67 1.33,0.67 0,0z" fill="#f9faf9" id="svg_8"/>
  </g>
  <g id="svg_9">
   <path d="m246.5,68.5c1.33,0.67 1.33,0.67 0,0z" fill="#f9faf9" id="svg_10"/>
  </g>
  <g id="svg_11">
   <path d="m383.5,24.5c1.33,0.67 1.33,0.67 0,0z" fill="#f9faf9" id="svg_12"/>
  </g>
  <g id="svg_13">
   <path d="m171.5,86.5c1.33,0.67 1.33,0.67 0,0z" fill="#f9faf9" id="svg_14"/>
  </g>
  <g id="svg_15">
   <path d="m261.5,102.5c1.33,0.67 1.33,0.67 0,0z" fill="#f9faf9" id="svg_16"/>
  </g>
  <g id="svg_17">
   <path d="m467.5,29.5c1.33,0.67 1.33,0.67 0,0z" fill="#f9faf9" id="svg_18"/>
  </g>
  <g id="svg_19">
   <path d="m130.5,-71.5c1.33,0.67 1.33,0.67 0,0z" fill="#f9faf9" id="svg_20"/>
  </g>
  <g id="svg_21">
   <path d="m104.5,-58.5c1.33,0.67 1.33,0.67 0,0z" fill="#f9faf9" id="svg_22"/>
  </g>
  <g id="svg_23">
   <path d="m-11.5,-57.5c1.33,0.67 1.33,0.67 0,0z" fill="#f9faf9" id="svg_24"/>
  </g>
  <g id="svg_25">
   <path d="m29.5,-53.5c1.33,0.67 1.33,0.67 0,0z" fill="#f9faf9" id="svg_26"/>
  </g>
  <g id="svg_27">
   <path d="m301.5,-50.5c1.33,0.67 1.33,0.67 0,0z" fill="#f9faf9" id="svg_28"/>
  </g>
  <g id="svg_29">
   <path d="m306.5,-2.5c1.33,0.67 1.33,0.67 0,0z" fill="#f9faf9" id="svg_30"/>
  </g>
  <g id="svg_31">
   <path d="m263.5,274.5c-2.26,-0.27 -2.59,-1.27 -1,-3c2.71,-2.71 5.71,-5.05 9,-7c2.77,-2.1 4.77,-4.77 6,-8c0.59,0.21 1.09,0.54 1.5,1c1.56,-1.72 2.39,-3.72 2.5,-6c-1.7,-0.47 -3.2,-0.47 -4.5,0c-0.48,-0.95 -0.65,-1.95 -0.5,-3c1.33,0 2.67,0 4,0c0,-1.67 0,-3.33 0,-5c-1.33,0 -2.67,0 -4,0c0,-1 0,-2 0,-3c-2.36,0.16 -4.69,0 -7,-0.5c28.89,-36.78 35.39,-77.28 19.5,-121.5c-4.23,-10.13 -9.73,-19.46 -16.5,-28c-1,0.33 -1.67,1 -2,2c1.45,1.44 2.45,3.11 3,5c0.22,1.18 -0.11,2.18 -1,3c-2.17,1.67 -4.33,3.33 -6.5,5c-0.89,-2.97 -0.39,-5.63 1.5,-8c-0.33,-0.33 -0.67,-0.67 -1,-1c-1.22,0.76 -2.22,1.76 -3,3c-1.18,-1.35 -2.18,-1.19 -3,0.5c0.12,1.27 0.45,2.6 1,4c-0.73,1.4 -1.23,2.9 -1.5,4.5c-0.87,-0.61 -1.37,-1.44 -1.5,-2.5c0.05,-2.28 0.38,-4.61 1,-7c-1.99,-0.18 -3.99,-0.01 -6,0.5c0.31,-3.54 -0.02,-6.87 -1,-10c-0.07,-1.91 -1.07,-3.08 -3,-3.5c-1.97,-0.5 -3.97,-0.66 -6,-0.5c-0.56,-3.29 -2.22,-5.79 -5,-7.5c0.56,-1.68 1.56,-3.01 3,-4c-2.86,-0.54 -5.53,-1.54 -8,-3c5.08,-4.97 9.08,-4.14 12,2.5c-0.21,0.59 -0.54,1.09 -1,1.5c2.44,0.12 4.77,-0.38 7,-1.5c3.29,1.82 5.96,4.32 8,7.5c-1.63,0.49 -3.3,0.66 -5,0.5c0,1.33 0,2.67 0,4c4,0 8,0 12,0c0,-4.33 0,-8.67 0,-13c-1,0 -2,0 -3,0c0.16,2.36 0,4.69 -0.5,7c-39.72,-37 -85.55,-47.17 -137.5,-30.5c-17.46,7.15 -32.62,17.65 -45.5,31.5c-0.72,1.66 -0.22,2.66 1.5,3c2.87,0.35 5.2,1.69 7,4c-1.33,0.67 -2.67,1.33 -4,2c2.63,1.58 3.96,3.91 4,7c-3.97,-0.61 -7.97,-1.11 -12,-1.5c-1.83,-0.27 -3.33,-1.11 -4.5,-2.5c-0.56,0.52 -1.23,0.85 -2,1c-3.13,-2.15 -6.47,-3.82 -10,-5c-1.63,0.6 -3.29,0.26 -5,-1c-3.68,0.22 -7.52,0.22 -11.5,0c-4.6,-0.97 -8.6,-2.97 -12,-6c36.08,-58.04 88.42,-83.54 157,-76.5c65.59,12.37 107.76,50.53 126.5,114.5c13.38,62.26 -3.79,113.93 -51.5,155z" fill="#f0f1f1" id="svg_32"/>
  </g>
  <g id="svg_33">
   <path d="m173.5,172.5c1.33,0.67 1.33,0.67 0,0z" fill="#f9faf9" id="svg_34"/>
  </g>
  <g id="svg_35">
   <path d="m113.5,176.5c1.33,0.67 1.33,0.67 0,0z" fill="#f9faf9" id="svg_36"/>
  </g>
  <g id="svg_37">
   <path d="m251.5,73.5c-35.37,-28.49 -75.04,-36.32 -119,-23.5c-20.05,6.68 -37.05,17.85 -51,33.5c-1.72,-0.34 -2.22,-1.34 -1.5,-3c12.88,-13.85 28.04,-24.35 45.5,-31.5c51.95,-16.67 97.78,-6.5 137.5,30.5c0.5,-2.31 0.66,-4.64 0.5,-7c1,0 2,0 3,0c0,4.33 0,8.67 0,13c-4,0 -8,0 -12,0c0,-1.33 0,-2.67 0,-4c1.7,0.16 3.37,-0.01 5,-0.5c-2.04,-3.18 -4.71,-5.68 -8,-7.5z" fill="#4c6189" id="svg_38"/>
  </g>
  <g id="svg_39">
   <path d="m183.5,185.5c1.33,0.67 1.33,0.67 0,0z" fill="#f9faf9" id="svg_40"/>
  </g>
  <g id="svg_41">
   <path d="m251.5,73.5c-2.23,1.12 -4.56,1.62 -7,1.5c0.46,-0.41 0.79,-0.91 1,-1.5c-2.92,-6.64 -6.92,-7.47 -12,-2.5c2.47,1.46 5.14,2.46 8,3c-1.44,0.99 -2.44,2.32 -3,4c2.78,1.71 4.44,4.21 5,7.5c-2.06,-0.26 -3.4,-1.43 -4,-3.5c-3.99,-0.5 -7.99,-0.67 -12,-0.5c0.17,1.32 -0.16,2.49 -1,3.5c-3.52,0.18 -6.86,0.68 -10,1.5c-1.41,0.47 -2.07,1.47 -2,3c-1.15,6.49 -1.32,13.15 -0.5,20c2.2,2.63 5.03,3.63 8.5,3c-0.31,5.97 1.36,6.64 5,2c0.67,0 1,-0.33 1,-1c7.69,-0.53 15.36,-1.37 23,-2.5c0.98,-7.08 1.31,-14.25 1,-21.5c0.98,3.13 1.31,6.46 1,10c2.01,-0.51 4.01,-0.68 6,-0.5c-0.62,2.39 -0.95,4.72 -1,7c0.13,1.06 0.63,1.89 1.5,2.5c0.27,-1.6 0.77,-3.1 1.5,-4.5c-0.55,-1.4 -0.88,-2.73 -1,-4c0.82,-1.69 1.82,-1.85 3,-0.5c0.78,-1.24 1.78,-2.24 3,-3c0.33,0.33 0.67,0.67 1,1c-1.89,2.37 -2.39,5.03 -1.5,8c2.17,-1.67 4.33,-3.33 6.5,-5c0.89,-0.82 1.22,-1.82 1,-3c20.88,30.29 26.05,63.29 15.5,99c-4.04,14.84 -10.87,28.18 -20.5,40c-0.97,-1.9 -1.3,-3.9 -1,-6c-1,0 -2,0 -3,0c0,4.33 0,8.67 0,13c4,0 8,0 12,0c1.33,0 2.67,0 4,0c0,1.67 0,3.33 0,5c-1.33,0 -2.67,0 -4,0c-0.15,1.05 0.02,2.05 0.5,3c1.3,-0.47 2.8,-0.47 4.5,0c-0.11,2.28 -0.94,4.28 -2.5,6c-0.41,-0.46 -0.91,-0.79 -1.5,-1c-1.23,3.23 -3.23,5.9 -6,8c-3.29,1.95 -6.29,4.29 -9,7c-1.59,1.73 -1.26,2.73 1,3c-0.33,1 -1,1.67 -2,2c-2.34,-1.45 -4.34,-0.95 -6,1.5c-6.87,1.75 -10.87,-0.75 -12,-7.5c-0.13,-1.72 -0.46,-3.38 -1,-5c-0.34,-1.98 0.32,-3.32 2,-4c6.12,-0.62 8.62,-3.95 7.5,-10c-0.71,-0.88 -1.54,-1.55 -2.5,-2c-0.11,-0.62 -0.44,-1.12 -1,-1.5c-36.33,-0.5 -72.67,-0.67 -109,-0.5c-5.71,-4.07 -6.37,-8.91 -2,-14.5c3.08,-0.97 6.08,-1.81 9,-2.5c33.33,-2.5 66.66,-5 100,-7.5c2.77,-1.47 5.27,-3.3 7.5,-5.5c7.99,-25.63 15.82,-51.29 23.5,-77c-0.57,-5.73 -3.57,-9.57 -9,-11.5c-7.33,-0.67 -14.67,-0.67 -22,0c-6.2,3.83 -6.54,8.16 -1,13c5.33,0.33 10.67,0.67 16,1c0.56,0.72 0.89,1.56 1,2.5c-6.02,18.23 -11.52,36.56 -16.5,55c-0.89,2.53 -2.06,4.86 -3.5,7c-29.19,3.65 -58.53,6.65 -88,9c-2.42,-0.09 -4.76,-0.59 -7,-1.5c-2.01,-3 -3.34,-6.17 -4,-9.5c-6.07,-20.56 -11.74,-41.23 -17,-62c5.34,0.17 10.68,0 16,-0.5c4.86,-4.03 5.2,-8.37 1,-13c-7.66,-0.5 -15.33,-0.67 -23,-0.5c-5.06,-13.56 -14.39,-23.06 -28,-28.5c-6.49,-2.55 -13.16,-4.39 -20,-5.5c-9.87,-1.78 -19.54,-4.45 -29,-8c3.98,0.22 7.82,0.22 11.5,0c1.71,1.26 3.37,1.6 5,1c3.53,1.18 6.87,2.85 10,5c0.77,-0.15 1.44,-0.48 2,-1c1.17,1.39 2.67,2.23 4.5,2.5c4.03,0.39 8.03,0.89 12,1.5c-0.04,-3.09 -1.37,-5.42 -4,-7c1.33,-0.67 2.67,-1.33 4,-2c-1.8,-2.31 -4.13,-3.65 -7,-4c13.95,-15.65 30.95,-26.82 51,-33.5c43.96,-12.82 83.63,-4.99 119,23.5z" fill="#f0f2f2" id="svg_42"/>
  </g>
  <g id="svg_43">
   <path d="m182.5,203.5c1.33,0.67 1.33,0.67 0,0z" fill="#f9faf9" id="svg_44"/>
  </g>
  <g id="svg_45">
   <path d="m356.5,70.5c1.33,0.67 1.33,0.67 0,0z" fill="#f9faf9" id="svg_46"/>
  </g>
  <g id="svg_47">
   <path d="m243.5,85.5c2.03,-0.16 4.03,0 6,0.5c1.93,0.42 2.93,1.59 3,3.5c0.31,7.25 -0.02,14.42 -1,21.5c-7.64,1.13 -15.31,1.97 -23,2.5c0.83,-1.44 2.17,-2.44 4,-3c-1.27,-0.79 -2.27,-1.79 -3,-3c-5.19,-1.7 -7.36,-5.37 -6.5,-11c-1.49,-1.42 -2.99,-2.75 -4.5,-4c1.33,0 2.67,0 4,0c0.88,0.13 1.54,-0.2 2,-1c-1.14,-0.93 -1.14,-1.76 0,-2.5c1.33,0 2.67,0 4,0c-0.46,-0.41 -0.79,-0.91 -1,-1.5c-3.61,-0.99 -7.27,-1.32 -11,-1c3.14,-0.82 6.48,-1.32 10,-1.5c0.84,-1.01 1.17,-2.18 1,-3.5c4.01,-0.17 8.01,0 12,0.5c0.6,2.07 1.94,3.24 4,3.5z" fill="#415f94" id="svg_48"/>
  </g>
  <g id="svg_49">
   <path d="m31.5,81.5c3.4,3.03 7.4,5.03 12,6c9.46,3.55 19.13,6.22 29,8c-3.18,-0.24 -6.18,-0.24 -9,0c-0.98,-0.48 -1.81,-1.14 -2.5,-2c-2.8,1.07 -5.47,2.4 -8,4c-0.77,-0.15 -1.44,-0.48 -2,-1c-1.44,1.4 -2.27,3.07 -2.5,5c-2.98,0.12 -5.81,0.79 -8.5,2c-1.44,-1.4 -2.27,-3.07 -2.5,-5c-1.05,0.15 -2.05,-0.02 -3,-0.5c1.13,-1.02 0.8,-1.68 -1,-2c1.44,-1.65 3.11,-1.81 5,-0.5c1.75,-2.2 4.09,-3.37 7,-3.5c-1.8,-0.32 -2.13,-0.98 -1,-2c-5.12,-0.73 -9.96,-1.56 -14.5,-2.5c-1.61,1.16 -1.61,2.49 0,4c1.07,-0.78 2.24,-0.61 3.5,0.5c-0.95,0.48 -1.95,0.65 -3,0.5c0.2,1.89 -0.46,3.39 -2,4.5c1.38,2.54 2.54,2.71 3.5,0.5c0.69,0.53 1.19,1.19 1.5,2c-1.58,0.8 -3.24,1.3 -5,1.5c1.14,0.74 1.14,1.57 0,2.5c3.81,0.78 7.31,2.11 10.5,4c1.31,-0.79 2.48,-0.45 3.5,1c-2.33,0 -4.67,0 -7,0c-10.44,-1.89 -19.11,-6.89 -26,-15c-2.86,-3.06 -4.7,-6.72 -5.5,-11c-1.08,-8.83 -0.41,-17.49 2,-26c1.01,-0.84 2.18,-1.17 3.5,-1c3.31,11.98 10.64,20.65 22,26z" fill="#395b96" id="svg_50"/>
  </g>
  <g id="svg_51">
   <path d="m276.5,243.5c-4,0 -8,0 -12,0c0,-4.33 0,-8.67 0,-13c1,0 2,0 3,0c-0.3,2.1 0.03,4.1 1,6c9.63,-11.82 16.46,-25.16 20.5,-40c10.55,-35.71 5.38,-68.71 -15.5,-99c-0.55,-1.89 -1.55,-3.56 -3,-5c0.33,-1 1,-1.67 2,-2c6.77,8.54 12.27,17.87 16.5,28c15.89,44.22 9.39,84.72 -19.5,121.5c2.31,0.5 4.64,0.66 7,0.5c0,1 0,2 0,3z" fill="#4e6289" id="svg_52"/>
  </g>
  <g id="svg_53">
   <path d="m229.5,107.5c-6.97,-6.33 -6.63,-12.17 1,-17.5c11.64,-0.67 15.14,4.5 10.5,15.5c-3.58,1.79 -7.42,2.46 -11.5,2z" fill="#d3e5f1" id="svg_54"/>
  </g>
  <g id="svg_55">
   <path d="m231.5,92.5c6.83,-0.67 9.66,2.33 8.5,9c-6.58,6.16 -10.58,4.82 -12,-4c1,-1.82 2.16,-3.49 3.5,-5z" fill="#405f98" id="svg_56"/>
  </g>
  <g id="svg_57">
   <path d="m72.5,95.5c1.12,1.45 2.62,2.45 4.5,3c0.33,-0.33 0.67,-0.67 1,-1c6.68,2.67 13.34,5.34 20,8c0.61,1.74 -0.05,2.74 -2,3c-1.96,-0.96 -3.63,-2.3 -5,-4c-3.2,0.46 -3.87,1.8 -2,4c0.33,-0.33 0.67,-0.67 1,-1c2.04,1.54 4.21,2.87 6.5,4c-1.92,0.81 -3.92,1.31 -6,1.5c3.63,0.16 6.97,1.16 10,3c-2.47,1.52 -4.8,2.35 -7,2.5c-0.42,0.62 -1.08,0.96 -2,1c-4.28,-3.63 -9.28,-5.47 -15,-5.5c-1.58,-0.71 -3.08,-1.54 -4.5,-2.5c-1.39,1.05 -2.89,1.22 -4.5,0.5c-2.22,-1.28 -4.55,-2.28 -7,-3c0.33,-0.33 0.67,-0.67 1,-1c-1.63,-0.49 -3.3,-0.66 -5,-0.5c0,-1 0,-2 0,-3c-2.92,-0.95 -5.76,-1.29 -8.5,-1c-0.37,0.92 -0.87,1.75 -1.5,2.5c3.51,0.63 6.84,1.63 10,3c-4.69,0.56 -9.36,0.4 -14,-0.5c-1.02,-1.45 -2.19,-1.79 -3.5,-1c-3.19,-1.89 -6.69,-3.22 -10.5,-4c1.14,-0.93 1.14,-1.76 0,-2.5c1.76,-0.2 3.42,-0.7 5,-1.5c-0.31,-0.81 -0.81,-1.47 -1.5,-2c-0.96,2.21 -2.12,2.04 -3.5,-0.5c1.54,-1.11 2.2,-2.61 2,-4.5c1.05,0.15 2.05,-0.02 3,-0.5c-1.26,-1.11 -2.43,-1.28 -3.5,-0.5c-1.61,-1.51 -1.61,-2.84 0,-4c4.54,0.94 9.38,1.77 14.5,2.5c-1.13,1.02 -0.8,1.68 1,2c-2.91,0.13 -5.25,1.3 -7,3.5c-1.89,-1.31 -3.56,-1.15 -5,0.5c1.8,0.32 2.13,0.98 1,2c0.95,0.48 1.95,0.65 3,0.5c0.23,1.93 1.06,3.6 2.5,5c2.69,-1.21 5.52,-1.88 8.5,-2c0.23,-1.93 1.06,-3.6 2.5,-5c0.56,0.52 1.23,0.85 2,1c2.53,-1.6 5.2,-2.93 8,-4c0.69,0.86 1.52,1.52 2.5,2c2.82,-0.24 5.82,-0.24 9,0z" fill="#355799" id="svg_58"/>
  </g>
  <g id="svg_59">
   <path d="m247.5,87.5c1.08,0.04 2.08,0.37 3,1c1.16,6.98 1.33,13.98 0.5,21c-0.56,-0.52 -1.23,-0.85 -2,-1c-2.75,2.9 -5.58,3.23 -8.5,1c2.95,-5.6 3.79,-11.6 2.5,-18c-0.5,-0.5 -1,-1 -1.5,-1.5c1.99,-0.18 3.99,-0.01 6,0.5c0,-1 0,-2 0,-3z" fill="#35599c" id="svg_60"/>
  </g>
  <g id="svg_61">
   <path d="m216.5,86.5c3.73,-0.32 7.39,0.01 11,1c0.21,0.59 0.54,1.09 1,1.5c-1.33,0 -2.67,0 -4,0c-1.14,0.74 -1.14,1.57 0,2.5c-0.46,0.8 -1.12,1.13 -2,1c0,-1.33 0,-2.67 0,-4c-1.33,0 -2.67,0 -4,0c0,1.33 0,2.67 0,4c1.51,1.25 3.01,2.58 4.5,4c-0.86,5.63 1.31,9.3 6.5,11c0.73,1.21 1.73,2.21 3,3c-1.83,0.56 -3.17,1.56 -4,3c0,0.67 -0.33,1 -1,1c-3.19,0.32 -4.19,-0.84 -3,-3.5c-3.28,-0.06 -6.28,-0.89 -9,-2.5c-0.96,-6.27 -1.29,-12.61 -1,-19c-0.07,-1.53 0.59,-2.53 2,-3z" fill="#36599a" id="svg_62"/>
  </g>
  <g id="svg_63">
   <path d="m222.5,92.5c-1.33,0 -2.67,0 -4,0c0,-1.33 0,-2.67 0,-4c1.33,0 2.67,0 4,0c0,1.33 0,2.67 0,4z" fill="#abbed7" id="svg_64"/>
  </g>
  <g id="svg_65">
   <path d="m214.5,89.5c-0.29,6.39 0.04,12.73 1,19c2.72,1.61 5.72,2.44 9,2.5c-1.19,2.66 -0.19,3.82 3,3.5c-3.64,4.64 -5.31,3.97 -5,-2c-3.47,0.63 -6.3,-0.37 -8.5,-3c-0.82,-6.85 -0.65,-13.51 0.5,-20z" fill="#5b7198" id="svg_66"/>
  </g>
  <g id="svg_67">
   <path d="m93.5,118.5c0.72,0.42 1.22,1.08 1.5,2c0.33,-0.33 0.67,-0.67 1,-1c0.44,3.11 1.78,5.78 4,8c0.33,-0.67 0.67,-1.33 1,-2c1,2.33 2,4.67 3,7c2.16,0.55 2.66,1.55 1.5,3c-8.31,-11.16 -19.31,-18.33 -33,-21.5c-12.56,-1.27 -24.9,-3.1 -37,-5.5c2.33,0 4.67,0 7,0c4.64,0.9 9.31,1.06 14,0.5c-3.16,-1.37 -6.49,-2.37 -10,-3c0.63,-0.75 1.13,-1.58 1.5,-2.5c2.74,-0.29 5.58,0.05 8.5,1c0,1 0,2 0,3c1.7,-0.16 3.37,0.01 5,0.5c-0.33,0.33 -0.67,0.67 -1,1c2.45,0.72 4.78,1.72 7,3c1.61,0.72 3.11,0.55 4.5,-0.5c1.42,0.96 2.92,1.79 4.5,2.5c5.72,0.03 10.72,1.87 15,5.5c0.92,-0.04 1.58,-0.38 2,-1z" fill="#446191" id="svg_68"/>
  </g>
  <g id="svg_69">
   <path d="m335.5,132.5c1.33,0.67 1.33,0.67 0,0z" fill="#f9faf9" id="svg_70"/>
  </g>
  <g id="svg_71">
   <path d="m9.5,93.5c6.89,8.11 15.56,13.11 26,15c12.1,2.4 24.44,4.23 37,5.5c13.69,3.17 24.69,10.34 33,21.5c3.35,5.36 6.18,11.03 8.5,17c2.96,10.2 6.12,20.2 9.5,30c2.24,11.97 5.58,23.64 10,35c-5.4,3.9 -9.56,8.9 -12.5,15c-2.54,9.95 -0.04,18.28 7.5,25c1.21,1.65 2.55,3.31 4,5c1.24,-0.75 2.57,-1.08 4,-1c0,1.33 0,2.67 0,4c-1.23,3.68 -1.23,7.35 0,11c0.16,1.37 -0.01,2.71 -0.5,4c-5.09,0.36 -10.26,1.52 -15.5,3.5c2.22,1.27 4.55,2.27 7,3c5.46,-0.09 10.63,0.75 15.5,2.5c2.41,-0.64 4.91,-0.97 7.5,-1c11.22,1.59 22.56,2.42 34,2.5c0.92,0.37 1.75,0.87 2.5,1.5c3.74,-0.96 7.74,-0.96 12,0c3.4,-1.04 6.9,-1.71 10.5,-2c1.72,1.66 3.89,2.66 6.5,3c1.01,-0.39 1.51,-1.06 1.5,-2c1.25,0.54 2.42,1.21 3.5,2c1.02,-1.13 1.68,-0.8 2,1c1.6,-1.54 3.43,-2.04 5.5,-1.5c-5.55,1.69 -10.39,4.52 -14.5,8.5c-0.33,-0.33 -0.67,-0.67 -1,-1c-6.24,2.69 -12.74,4.69 -19.5,6c-1.21,0.25 -1.88,0.91 -2,2c-70.27,7.28 -124.1,-18.72 -161.5,-78c-17.69,-34.28 -22.86,-70.44 -15.5,-108.5c-0.62,-4.15 -0.96,-8.31 -1,-12.5c-0.99,-5.31 -2.33,-10.64 -4,-16z" fill="#eff1f1" id="svg_72"/>
  </g>
  <g id="svg_73">
   <path d="m102.5,142.5c5.48,8.25 8.98,17.25 10.5,27c-4.18,-3.1 -8.85,-4.76 -14,-5c-8.71,1.35 -17.21,3.51 -25.5,6.5c-18.98,2.18 -30.65,-5.98 -35,-24.5c9.6,1.43 18.94,0.76 28,-2c0.76,-0.42 1.6,-0.76 2.5,-1c1.06,1.13 2.22,1.63 3.5,1.5c-1.36,-2.13 -1.03,-2.63 1,-1.5c0.93,-1.19 1.26,-2.52 1,-4c7.97,-0.17 7.97,-0.67 0,-1.5c-0.83,-0.83 -1.67,-1.67 -2.5,-2.5c-1.01,0.84 -2.18,1.17 -3.5,1c0,-1.33 0,-2.67 0,-4c4.58,0.1 8.41,1.76 11.5,5c1.02,-1.13 1.68,-0.8 2,1c0.33,-1.67 0.67,-3.33 1,-5c2.29,4.04 1.46,7.37 -2.5,10c-2,0.67 -4,1.33 -6,2c1.19,0.93 2.52,1.26 4,1c-0.58,4.38 -1.08,8.71 -1.5,13c0.85,1.63 1.85,1.96 3,1c1.09,1.85 2.43,3.52 4,5c0.75,-0.63 1.58,-1.13 2.5,-1.5c-3.71,-1.16 -3.71,-2.66 0,-4.5c3.61,1.09 7.28,1.26 11,0.5c-2.98,-0.5 -5.98,-0.66 -9,-0.5c0.16,-1.37 -0.01,-2.71 -0.5,-4c-0.89,1.21 -1.73,1.21 -2.5,0c1.43,-0.73 2.6,-1.73 3.5,-3c0.71,1.47 1.88,2.14 3.5,2c-0.49,-3.21 0.18,-6.04 2,-8.5c-1.04,-1.62 -2.2,-1.78 -3.5,-0.5c-1.19,-1.54 -1.52,-3.21 -1,-5c0.33,0.67 0.67,1.33 1,2c0.39,-0.93 1.06,-1.59 2,-2c1.56,0.53 3.06,1.2 4.5,2c1.59,1.59 2.42,3.25 2.5,5c1.89,-1.12 2.72,-2.78 2.5,-5z" fill="#395b96" id="svg_74"/>
  </g>
  <g id="svg_75">
   <path d="m101.5,141.5c0.67,0 1,0.33 1,1c0.22,2.22 -0.61,3.88 -2.5,5c-0.08,-1.75 -0.91,-3.41 -2.5,-5c-1.44,-0.8 -2.94,-1.47 -4.5,-2c-0.94,0.41 -1.61,1.07 -2,2c-0.33,-0.67 -0.67,-1.33 -1,-2c-0.52,1.79 -0.19,3.46 1,5c1.3,-1.28 2.46,-1.12 3.5,0.5c-1.82,2.46 -2.49,5.29 -2,8.5c-1.62,0.14 -2.79,-0.53 -3.5,-2c-0.9,1.27 -2.07,2.27 -3.5,3c0.77,1.21 1.61,1.21 2.5,0c0.49,1.29 0.66,2.63 0.5,4c3.02,-0.16 6.02,0 9,0.5c-3.72,0.76 -7.39,0.59 -11,-0.5c-3.71,1.84 -3.71,3.34 0,4.5c-0.92,0.37 -1.75,0.87 -2.5,1.5c-1.57,-1.48 -2.91,-3.15 -4,-5c-1.15,0.96 -2.15,0.63 -3,-1c0.42,-4.29 0.92,-8.62 1.5,-13c-1.48,0.26 -2.81,-0.07 -4,-1c2,-0.67 4,-1.33 6,-2c3.96,-2.63 4.79,-5.96 2.5,-10c-0.33,1.67 -0.67,3.33 -1,5c-0.32,-1.8 -0.98,-2.13 -2,-1c-3.09,-3.24 -6.92,-4.9 -11.5,-5c0,1.33 0,2.67 0,4c1.32,0.17 2.49,-0.16 3.5,-1c0.83,0.83 1.67,1.67 2.5,2.5c7.97,0.83 7.97,1.33 0,1.5c0.26,1.48 -0.07,2.81 -1,4c-2.03,-1.13 -2.36,-0.63 -1,1.5c-1.28,0.13 -2.44,-0.37 -3.5,-1.5c-0.9,0.24 -1.74,0.58 -2.5,1c-1.01,-1.26 -2.51,-1.93 -4.5,-2c-3.6,1.21 -7.1,1.05 -10.5,-0.5c3.19,-1.09 6.53,-1.92 10,-2.5c2.67,-1 2.67,-2 0,-3c-0.95,0.49 -1.95,0.82 -3,1c-3.47,-0.32 -6.63,-1.32 -9.5,-3c-3.09,2.56 -6.26,2.06 -9.5,-1.5c4.28,-0.21 8.45,-0.38 12.5,-0.5c0.69,0.86 1.52,1.52 2.5,2c3.69,-0.69 7.36,-1.53 11,-2.5c0.33,-0.33 0.67,-0.67 1,-1c-3.39,-2.06 -6.72,-3.39 -10,-4c0.92,-0.37 1.75,-0.87 2.5,-1.5c1.73,1.08 3.56,1.24 5.5,0.5c-1,-0.83 -2,-1.67 -3,-2.5c4.87,-2.44 9.87,-2.61 15,-0.5c1.78,1.44 3.78,2.44 6,3c-0.33,0.33 -0.67,0.67 -1,1c3.15,0.11 4.15,1.44 3,4c2.06,0.31 4.06,0.31 6,0c3.88,3.38 7.54,6.88 11,10.5z" fill="#375799" id="svg_76"/>
  </g>
  <g id="svg_77">
   <path d="m101.5,141.5c-3.46,-3.62 -7.12,-7.12 -11,-10.5c-1.94,0.31 -3.94,0.31 -6,0c1.15,-2.56 0.15,-3.89 -3,-4c0.33,-0.33 0.67,-0.67 1,-1c-2.22,-0.56 -4.22,-1.56 -6,-3c-5.13,-2.11 -10.13,-1.94 -15,0.5c1,0.83 2,1.67 3,2.5c-1.94,0.74 -3.77,0.58 -5.5,-0.5c-0.75,0.63 -1.58,1.13 -2.5,1.5c3.28,0.61 6.61,1.94 10,4c-0.33,0.33 -0.67,0.67 -1,1c-3.64,0.97 -7.31,1.81 -11,2.5c-0.98,-0.48 -1.81,-1.14 -2.5,-2c-4.05,0.12 -8.22,0.29 -12.5,0.5c3.24,3.56 6.41,4.06 9.5,1.5c2.87,1.68 6.03,2.68 9.5,3c1.05,-0.18 2.05,-0.51 3,-1c2.67,1 2.67,2 0,3c-3.47,0.58 -6.81,1.41 -10,2.5c3.4,1.55 6.9,1.71 10.5,0.5c1.99,0.07 3.49,0.74 4.5,2c-13.11,1.15 -25.44,-1.35 -37,-7.5c-9.09,-7.02 -14.42,-16.19 -16,-27.5c0,-1 0,-2 0,-3c13.75,8.19 28.75,12.02 45,11.5c15.57,0.63 28.74,6.46 39.5,17.5c1.42,1.91 2.59,3.91 3.5,6z" fill="#385b96" id="svg_78"/>
  </g>
  <g id="svg_79">
   <path d="m176.5,119.5c-5.19,2.51 -9.52,6.18 -13,11c-6.12,5.56 -9.62,12.56 -10.5,21c-0.67,5 -0.67,10 0,15c1.89,5.5 4.05,10.83 6.5,16c-1.52,-0.01 -2.68,-0.68 -3.5,-2c-0.8,-4.27 -2.14,-7.6 -4,-10c-3.69,-16.29 -0.19,-30.62 10.5,-43c2.74,-1.77 5.4,-3.44 8,-5c0,-1 0,-2 0,-3c2,0 4,0 6,0z" fill="#daf2db" id="svg_80"/>
  </g>
  <g id="svg_81">
   <path d="m379.5,162.5c1.33,0.67 1.33,0.67 0,0z" fill="#f9faf9" id="svg_82"/>
  </g>
  <g id="svg_83">
   <path d="m69.5,302.5c1.33,0.67 1.33,0.67 0,0z" fill="#f9faf9" id="svg_84"/>
  </g>
  <g id="svg_85">
   <path d="m234.5,142.5c0.83,8.31 1.17,16.64 1,25c-1.43,-0.08 -2.76,0.25 -4,1c-0.33,-0.5 -0.67,-1 -1,-1.5c2.31,-5.63 2.65,-11.13 1,-16.5c-0.83,4 -1.67,8 -2.5,12c-0.67,-1.33 -1.33,-1.33 -2,0c-0.63,-2.21 -0.46,-4.38 0.5,-6.5c-0.4,-0.94 -1.07,-1.61 -2,-2c2.7,-1.82 3.54,-4.32 2.5,-7.5c-0.74,1.14 -1.57,1.14 -2.5,0c-0.8,1.58 -1.3,3.24 -1.5,5c-0.94,-0.76 -1.44,-1.76 -1.5,-3c-0.32,-2.4 0.01,-4.57 1,-6.5c-2.05,-0.49 -4.05,-0.32 -6,0.5c-8.93,-10.96 -20.27,-14.13 -34,-9.5c-13.85,8.28 -18.18,20.12 -13,35.5c-1.26,5.22 -1.93,10.56 -2,16c4.98,-0.55 9.98,-0.89 15,-1c-0.22,1.18 0.11,2.18 1,3c9.26,-1.7 18.59,-2.86 28,-3.5c1.72,0.45 2.39,1.28 2,2.5c1.6,-1.05 2.44,-0.38 2.5,2c1.33,-0.67 2.67,-1.33 4,-2c-0.33,2.77 -1.16,5.43 -2.5,8c-5.51,3.39 -11.51,5.39 -18,6c-8.93,-0.69 -17.43,-2.69 -25.5,-6c-3.1,0.3 -5.94,1.3 -8.5,3c-2.22,0.19 -3.89,-0.64 -5,-2.5c1.25,-3.65 1.25,-7.15 0,-10.5c-3.39,-7.95 -6.06,-16.11 -8,-24.5c1.78,-5.01 2.94,-10.18 3.5,-15.5c1.26,-3.52 3.26,-6.52 6,-9c0.49,-1.29 0.66,-2.63 0.5,-4c3.48,-4.82 7.81,-8.49 13,-11c22.8,-8.12 41.3,-2.45 55.5,17c1.12,1.91 1.95,3.91 2.5,6z" fill="#4ba356" id="svg_86"/>
  </g>
  <g id="svg_87">
   <path d="m113.5,175.5c2.4,1.33 3.74,3 4,5c-2.94,-1.07 -5.94,-1.24 -9,-0.5c-13.05,8.33 -25.05,7.17 -36,-3.5c8.16,-2.94 16.49,-5.27 25,-7c6.24,-0.12 11.57,1.88 16,6z" fill="#435f8f" id="svg_88"/>
  </g>
  <g id="svg_89">
   <path d="m113.5,175.5c0,1 0,2 0,3c-2.72,-0.1 -5.38,0.23 -8,1c-1.69,-0.26 -3.19,-0.93 -4.5,-2c-1.73,1.69 -1.23,2.86 1.5,3.5c-4.06,0.77 -8.06,0.6 -12,-0.5c-0.79,0.86 -0.46,1.69 1,2.5c-3.85,0.52 -7.52,-0.14 -11,-2c-1.33,-1.33 -1.33,-2.67 0,-4c4.17,-2.46 8.5,-3.62 13,-3.5c3.73,-2.01 7.73,-2.51 12,-1.5c2.61,1.48 5.28,2.65 8,3.5z" fill="#35589b" id="svg_90"/>
  </g>
  <g id="svg_91">
   <path d="m112.5,196.5c3,0 6,0 9,0c0,1.33 0,2.67 0,4c-13.03,0.2 -26.03,-0.3 -39,-1.5c10.16,-0.73 20.16,-1.56 30,-2.5z" fill="#506486" id="svg_92"/>
  </g>
  <g id="svg_93">
   <path d="m189.5,376.5c1.33,0.67 1.33,0.67 0,0z" fill="#f9faf9" id="svg_94"/>
  </g>
  <g id="svg_95">
   <path d="m72.5,95.5c6.84,1.11 13.51,2.95 20,5.5c13.61,5.44 22.94,14.94 28,28.5c7.67,-0.17 15.34,0 23,0.5c4.2,4.63 3.86,8.97 -1,13c-5.32,0.5 -10.66,0.67 -16,0.5c5.26,20.77 10.93,41.44 17,62c-1.26,5.72 0.57,10.05 5.5,13c8.07,-1.46 16.24,-1.96 24.5,-1.5c1.14,0.74 1.14,1.57 0,2.5c3.61,0.99 7.27,1.32 11,1c-0.17,-1.32 0.16,-2.49 1,-3.5c4.98,-1.63 9.98,-1.8 15,-0.5c1.21,-0.77 1.21,-1.61 0,-2.5c8.91,-0.4 17.91,-1.24 27,-2.5c4.84,1.39 9.51,1.06 14,-1c0.63,-0.92 0.96,-1.92 1,-3c1.44,-2.14 2.61,-4.47 3.5,-7c4.98,-18.44 10.48,-36.77 16.5,-55c-0.11,-0.94 -0.44,-1.78 -1,-2.5c-5.33,-0.33 -10.67,-0.67 -16,-1c-5.54,-4.84 -5.2,-9.17 1,-13c7.33,-0.67 14.67,-0.67 22,0c5.43,1.93 8.43,5.77 9,11.5c-7.68,25.71 -15.51,51.37 -23.5,77c-2.23,2.2 -4.73,4.03 -7.5,5.5c-33.34,2.5 -66.67,5 -100,7.5c-3.74,-0.26 -7.41,0.07 -11,1c-1.16,-2.95 -1.32,-5.95 -0.5,-9c0.67,-1.33 1.33,-1.33 2,0c0.17,-0.83 0.33,-1.67 0.5,-2.5c-1.85,-2.21 -3.35,-4.71 -4.5,-7.5c-2.11,-8.71 -4.11,-17.38 -6,-26c-0.66,-1.82 -1.83,-3.16 -3.5,-4c-3.38,-9.8 -6.54,-19.8 -9.5,-30c-2.32,-5.97 -5.15,-11.64 -8.5,-17c1.16,-1.45 0.66,-2.45 -1.5,-3c-1,-2.33 -2,-4.67 -3,-7c-0.33,0.67 -0.67,1.33 -1,2c-2.22,-2.22 -3.56,-4.89 -4,-8c-0.33,0.33 -0.67,0.67 -1,1c-0.28,-0.92 -0.78,-1.58 -1.5,-2c2.2,-0.15 4.53,-0.98 7,-2.5c-3.03,-1.84 -6.37,-2.84 -10,-3c2.08,-0.19 4.08,-0.69 6,-1.5c-2.29,-1.13 -4.46,-2.46 -6.5,-4c-0.33,0.33 -0.67,0.67 -1,1c-1.87,-2.2 -1.2,-3.54 2,-4c1.37,1.7 3.04,3.04 5,4c1.95,-0.26 2.61,-1.26 2,-3c-6.66,-2.66 -13.32,-5.33 -20,-8c-0.33,0.33 -0.67,0.67 -1,1c-1.88,-0.55 -3.38,-1.55 -4.5,-3z" fill="#395b97" id="svg_96"/>
  </g>
  <g id="svg_97">
   <path d="m161.5,183.5c1.25,3.35 1.25,6.85 0,10.5c1.11,1.86 2.78,2.69 5,2.5c2.56,-1.7 5.4,-2.7 8.5,-3c8.07,3.31 16.57,5.31 25.5,6c-8.94,1.61 -17.61,0.28 -26,-4c-4.91,1.44 -9.74,3.1 -14.5,5c-0.76,-0.07 -1.26,-0.4 -1.5,-1c1.25,-5.25 2.25,-10.59 3,-16z" fill="#5ba067" id="svg_98"/>
  </g>
  <g id="svg_99">
   <path d="m236.5,145.5c0.62,0.11 1.12,0.44 1.5,1c0.67,7.67 0.67,15.33 0,23c-1.87,5.52 -3.2,11.19 -4,17c-0.71,-1.47 -1.88,-2.14 -3.5,-2c0.28,2.89 -1.05,4.39 -4,4.5c-0.95,1.95 -2.29,3.62 -4,5c0.67,0.67 1.33,1.33 2,2c-2.19,1.06 -4.19,2.4 -6,4c2,0.33 4,0.67 6,1c-2.55,0.07 -4.71,0.9 -6.5,2.5c-1.11,-1.26 -1.28,-2.43 -0.5,-3.5c-2.07,-0.54 -3.9,-0.04 -5.5,1.5c-9.38,0.06 -18.88,-0.11 -28.5,-0.5c-2.95,-1.76 -6.12,-2.93 -9.5,-3.5c-4.54,1.74 -9.21,3.07 -14,4c-0.83,-0.33 -1.67,-0.67 -2.5,-1c0.12,-0.61 0.46,-0.94 1,-1c0.24,0.6 0.74,0.93 1.5,1c4.76,-1.9 9.59,-3.56 14.5,-5c8.39,4.28 17.06,5.61 26,4c6.49,-0.61 12.49,-2.61 18,-6c16.02,-12.04 22.02,-28.04 18,-48z" fill="#e1f2e1" id="svg_100"/>
  </g>
  <g id="svg_101">
   <path d="m234.5,142.5c0.67,1 1.33,2 2,3c4.02,19.96 -1.98,35.96 -18,48c1.34,-2.57 2.17,-5.23 2.5,-8c-1.33,0.67 -2.67,1.33 -4,2c-0.06,-2.38 -0.9,-3.05 -2.5,-2c0.39,-1.22 -0.28,-2.05 -2,-2.5c-9.41,0.64 -18.74,1.8 -28,3.5c-0.89,-0.82 -1.22,-1.82 -1,-3c-5.02,0.11 -10.02,0.45 -15,1c0.07,-5.44 0.74,-10.78 2,-16c0.66,1.12 0.99,2.45 1,4c-0.97,3.61 -1.64,7.28 -2,11c4.06,-0.68 8.06,-1.68 12,-3c15.63,6.94 28.13,3.27 37.5,-11c3.68,-9.32 3.18,-18.32 -1.5,-27c1.95,-0.82 3.95,-0.99 6,-0.5c-0.99,1.93 -1.32,4.1 -1,6.5c0.06,1.24 0.56,2.24 1.5,3c0.2,-1.76 0.7,-3.42 1.5,-5c0.93,1.14 1.76,1.14 2.5,0c1.04,3.18 0.2,5.68 -2.5,7.5c0.93,0.39 1.6,1.06 2,2c-0.96,2.12 -1.13,4.29 -0.5,6.5c0.67,-1.33 1.33,-1.33 2,0c0.83,-4 1.67,-8 2.5,-12c1.65,5.37 1.31,10.87 -1,16.5c0.33,0.5 0.67,1 1,1.5c1.24,-0.75 2.57,-1.08 4,-1c0.17,-8.36 -0.17,-16.69 -1,-25z" fill="#4fa15c" id="svg_102"/>
  </g>
  <g id="svg_103">
   <path d="m217.5,142.5c4.68,8.68 5.18,17.68 1.5,27c-9.37,14.27 -21.87,17.94 -37.5,11c-3.94,1.32 -7.94,2.32 -12,3c0.36,-3.72 1.03,-7.39 2,-11c-0.01,-1.55 -0.34,-2.88 -1,-4c-5.18,-15.38 -0.85,-27.22 13,-35.5c13.73,-4.63 25.07,-1.46 34,9.5z" fill="#def3e1" id="svg_104"/>
  </g>
  <g id="svg_105">
   <path d="m188.5,135.5c13.06,-1.89 22.23,3.11 27.5,15c3.09,14.12 -2.08,23.62 -15.5,28.5c-6.65,1.22 -12.82,0.05 -18.5,-3.5c-7.38,3.57 -9.22,1.73 -5.5,-5.5c-7.04,-15.37 -3.04,-26.87 12,-34.5z" fill="#57a061" id="svg_106"/>
  </g>
  <g id="svg_107">
   <path d="m189.5,148.5c1.58,2.6 1.25,4.93 -1,7c2,5.19 5.66,7.69 11,7.5c0.56,-0.38 0.89,-0.88 1,-1.5c6.51,0.31 8.17,3.14 5,8.5c-4.64,0.53 -8.97,-0.47 -13,-3c-4.25,-3.58 -7.75,-7.75 -10.5,-12.5c-1.63,-4.53 -0.3,-7.53 4,-9c1.6,0.57 2.77,1.57 3.5,3z" fill="#e2f4e4" id="svg_108"/>
  </g>
  <g id="svg_109">
   <path d="m181.5,143.5c1.21,1 1.05,2 -0.5,3c-0.67,3.67 -0.67,7.33 0,11c4.84,3.99 8.68,8.66 11.5,14c2.33,0 4.67,0 7,0c1.81,4.54 0.15,6.54 -5,6c-5.56,-1.85 -11.23,-3.18 -17,-4c-0.4,-5.46 -1.4,-10.79 -3,-16c1.06,-4.02 2.23,-8.02 3.5,-12c1.3,-0.59 2.47,-1.25 3.5,-2z" fill="#48a355" id="svg_110"/>
  </g>
  <g id="svg_111">
   <path d="m200.5,161.5c-0.11,0.62 -0.44,1.12 -1,1.5c-5.34,0.19 -9,-2.31 -11,-7.5c2.25,-2.07 2.58,-4.4 1,-7c0,-1.33 0,-2.67 0,-4c-1.18,0.22 -2.18,-0.11 -3,-1c1.14,-0.93 1.14,-1.76 0,-2.5c5.38,-5.34 11.38,-6 18,-2c2.46,1.46 4.63,3.29 6.5,5.5c-0.42,2.6 -0.42,5.26 0,8c0.67,-1.33 1.33,-1.33 2,0c0.6,1.64 1.1,3.3 1.5,5c-0.91,3.63 -1.57,7.63 -2,12c-1,0 -2,0 -3,0c0.16,-2.36 0,-4.69 -0.5,-7c-1.01,-0.84 -2.18,-1.17 -3.5,-1c0.19,-1.6 -0.31,-2.94 -1.5,-4c-1.13,0.23 -2.3,0.56 -3.5,1c-1.29,1.03 -1.29,2.03 0,3z" fill="#4ba356" id="svg_112"/>
  </g>
  <g id="svg_113">
   <path d="m163.5,130.5c0.16,1.37 -0.01,2.71 -0.5,4c-2.74,2.48 -4.74,5.48 -6,9c-0.56,5.32 -1.72,10.49 -3.5,15.5c1.94,8.39 4.61,16.55 8,24.5c-0.67,-0.33 -1.33,-0.67 -2,-1c-2.45,-5.17 -4.61,-10.5 -6.5,-16c-0.67,-5 -0.67,-10 0,-15c0.88,-8.44 4.38,-15.44 10.5,-21z" fill="#5b9f65" id="svg_114"/>
  </g>
  <g id="svg_115">
   <path d="m104.5,217.5c-7.49,-0.83 -15.16,-1.33 -23,-1.5c0.56,-0.38 0.89,-0.88 1,-1.5c14.16,-1.49 28.5,-2.32 43,-2.5c1.27,1.8 1.27,3.63 0,5.5c-6.97,0.73 -13.97,0.73 -21,0z" fill="#445e8d" id="svg_116"/>
  </g>
  <g id="svg_117">
   <path d="m82.5,214.5c-0.11,0.62 -0.44,1.12 -1,1.5c7.84,0.17 15.51,0.67 23,1.5c-16.34,-0.19 -32.67,-0.69 -49,-1.5c-0.33,-0.33 -0.67,-0.67 -1,-1c9.33,-0.5 18.66,-0.67 28,-0.5z" fill="#6f7e97" id="svg_118"/>
  </g>
  <g id="svg_119">
   <path d="m143.5,205.5c0.66,3.33 1.99,6.5 4,9.5c2.24,0.91 4.58,1.41 7,1.5c29.47,-2.35 58.81,-5.35 88,-9c-0.04,1.08 -0.37,2.08 -1,3c-4.49,2.06 -9.16,2.39 -14,1c-9.09,1.26 -18.09,2.1 -27,2.5c1.21,0.89 1.21,1.73 0,2.5c-5.02,-1.3 -10.02,-1.13 -15,0.5c-0.84,1.01 -1.17,2.18 -1,3.5c-3.73,0.32 -7.39,-0.01 -11,-1c1.14,-0.93 1.14,-1.76 0,-2.5c-8.26,-0.46 -16.43,0.04 -24.5,1.5c-4.93,-2.95 -6.76,-7.28 -5.5,-13z" fill="#405c8f" id="svg_120"/>
  </g>
  <g id="svg_121">
   <path d="m127.5,396.5c1.33,0.67 1.33,0.67 0,0z" fill="#f9faf9" id="svg_122"/>
  </g>
  <g id="svg_123">
   <path d="m138.5,399.5c1.33,0.67 1.33,0.67 0,0z" fill="#f9faf9" id="svg_124"/>
  </g>
  <g id="svg_125">
   <path d="m123.5,182.5c1.67,0.84 2.84,2.18 3.5,4c1.89,8.62 3.89,17.29 6,26c1.15,2.79 2.65,5.29 4.5,7.5c-0.17,0.83 -0.33,1.67 -0.5,2.5c-0.67,-1.33 -1.33,-1.33 -2,0c-0.82,3.05 -0.66,6.05 0.5,9c3.59,-0.93 7.26,-1.26 11,-1c-2.92,0.69 -5.92,1.53 -9,2.5c-4.37,5.59 -3.71,10.43 2,14.5c-1.97,0.24 -3.8,-0.09 -5.5,-1c-1.52,-2.33 -2.02,-4.66 -1.5,-7c-0.53,-1.77 -1.37,-2.1 -2.5,-1c-0.62,-0.95 -0.45,-1.78 0.5,-2.5c-2.43,-0.45 -2.6,-1.29 -0.5,-2.5c0.33,0.33 0.67,0.67 1,1c0.82,-2.62 1.32,-5.28 1.5,-8c-1.83,-0.55 -3.5,-0.55 -5,0c0.21,0.59 0.54,1.09 1,1.5c-3.11,0.85 -3.45,2.02 -1,3.5c-0.59,1.3 -1.59,2.13 -3,2.5c0.95,0.48 1.95,0.65 3,0.5c0.47,2.85 -0.36,5.18 -2.5,7c-0.67,3.33 -0.67,6.67 0,10c3.28,0.42 6.11,1.75 8.5,4c0.74,-1.41 1.58,-2.74 2.5,-4c0.93,2.54 2.76,3.54 5.5,3c-3.26,5.38 -7.59,6.38 -13,3c-7.54,-6.72 -10.04,-15.05 -7.5,-25c2.94,-6.1 7.1,-11.1 12.5,-15c-4.42,-11.36 -7.76,-23.03 -10,-35z" fill="#3c5c93" id="svg_126"/>
  </g>
  <g id="svg_127">
   <path d="m114.5,362.5c1.33,0.67 1.33,0.67 0,0z" fill="#f9faf9" id="svg_128"/>
  </g>
  <g id="svg_129">
   <path d="m96.5,232.5c6,0 12,0 18,0c0.21,1.64 -0.12,3.14 -1,4.5c-19.68,-0.03 -39.34,-0.69 -59,-2c14.17,-0.67 28.17,-1.5 42,-2.5z" fill="#4c6490" id="svg_130"/>
  </g>
  <g id="svg_131">
   <path d="m117.5,364.5c1.33,0.67 1.33,0.67 0,0z" fill="#f9faf9" id="svg_132"/>
  </g>
  <g id="svg_133">
   <path d="m139.5,247.5c36.33,-0.17 72.67,0 109,0.5c0.56,0.38 0.89,0.88 1,1.5c-32.29,-1.15 -64.62,-1.32 -97,-0.5c-0.5,0.5 -1,1 -1.5,1.5c-3.8,-1.47 -7.63,-2.47 -11.5,-3z" fill="#4f648e" id="svg_134"/>
  </g>
  <g id="svg_135">
   <path d="m139.5,247.5c3.87,0.53 7.7,1.53 11.5,3c0.5,-0.5 1,-1 1.5,-1.5c32.38,-0.82 64.71,-0.65 97,0.5c0.96,0.45 1.79,1.12 2.5,2c1.12,6.05 -1.38,9.38 -7.5,10c-1.69,-2.36 -3.69,-4.36 -6,-6c-0.3,-0.65 -0.64,-1.32 -1,-2c-5.97,-1.16 -11.97,-1.33 -18,-0.5c-1.48,1.98 -3.15,3.82 -5,5.5c-4.11,-2.19 -8.44,-2.52 -13,-1c0.21,0.59 0.54,1.09 1,1.5c-11,0.89 -22,1.22 -33,1c-1.51,-2.02 -2.85,-1.86 -4,0.5c-0.86,-2.43 -2.53,-3.76 -5,-4c0,-1 0,-2 0,-3c-5.15,-1.12 -10.15,-1.12 -15,0c-1.33,0.33 -2.67,0.67 -4,1c-2.74,0.54 -4.57,-0.46 -5.5,-3c-0.92,1.26 -1.76,2.59 -2.5,4c-2.39,-2.25 -5.22,-3.58 -8.5,-4c-0.67,-3.33 -0.67,-6.67 0,-10c2.14,-1.82 2.97,-4.15 2.5,-7c-1.05,0.15 -2.05,-0.02 -3,-0.5c1.41,-0.37 2.41,-1.2 3,-2.5c-2.45,-1.48 -2.11,-2.65 1,-3.5c-0.46,-0.41 -0.79,-0.91 -1,-1.5c1.5,-0.55 3.17,-0.55 5,0c-0.18,2.72 -0.68,5.38 -1.5,8c-0.33,-0.33 -0.67,-0.67 -1,-1c-2.1,1.21 -1.93,2.05 0.5,2.5c-0.95,0.72 -1.12,1.55 -0.5,2.5c1.13,-1.1 1.97,-0.77 2.5,1c-0.52,2.34 -0.02,4.67 1.5,7c1.7,0.91 3.53,1.24 5.5,1z" fill="#37599a" id="svg_136"/>
  </g>
  <g id="svg_137">
   <path d="m145.5,253.5c4.85,-1.12 9.85,-1.12 15,0c0,1 0,2 0,3c2.47,0.24 4.14,1.57 5,4c1.15,-2.36 2.49,-2.52 4,-0.5c11,0.22 22,-0.11 33,-1c-0.46,-0.41 -0.79,-0.91 -1,-1.5c4.56,-1.52 8.89,-1.19 13,1c1.85,-1.68 3.52,-3.52 5,-5.5c6.03,-0.83 12.03,-0.66 18,0.5c0.36,0.68 0.7,1.35 1,2c-9.29,-4.16 -16.96,-2.32 -23,5.5c-17.33,0.67 -34.67,0.67 -52,0c-4.47,-5.89 -10.47,-8.39 -18,-7.5z" fill="#436192" id="svg_138"/>
  </g>
  <g id="svg_139">
   <path d="m145.5,253.5c7.53,-0.89 13.53,1.61 18,7.5c17.33,0.67 34.67,0.67 52,0c6.04,-7.82 13.71,-9.66 23,-5.5c2.31,1.64 4.31,3.64 6,6c-1.68,0.68 -2.34,2.02 -2,4c-9.4,-10.96 -18.4,-10.62 -27,1c0.16,-1.37 -0.01,-2.71 -0.5,-4c-15.74,0.87 -31.58,0.87 -47.5,0c-1.4,0.37 -2.4,1.2 -3,2.5c0.85,2.68 1.85,5.35 3,8c-1.61,1.05 -2.27,2.55 -2,4.5c0.06,0.44 -0.1,0.77 -0.5,1c-0.51,-1.03 -1.01,-2.03 -1.5,-3c0.07,-13.77 -6.6,-19.27 -20,-16.5c-2.86,1.69 -5.19,3.86 -7,6.5c0,-1.33 0,-2.67 0,-4c-1.43,-0.08 -2.76,0.25 -4,1c-1.45,-1.69 -2.79,-3.35 -4,-5c5.41,3.38 9.74,2.38 13,-3c1.33,-0.33 2.67,-0.67 4,-1z" fill="#e2edf5" id="svg_140"/>
  </g>
  <g id="svg_141">
   <path d="m215.5,266.5c0,3 0,6 0,9c-0.07,1.81 -0.9,3.14 -2.5,4c-2.29,-0.57 -4.62,-0.91 -7,-1c-9.78,2.29 -19.61,2.46 -29.5,0.5c-0.5,-0.5 -1,-1 -1.5,-1.5c-2.84,1.26 -6.01,1.26 -9.5,0c-0.27,-1.95 0.39,-3.45 2,-4.5c-1.15,-2.65 -2.15,-5.32 -3,-8c0.6,-1.3 1.6,-2.13 3,-2.5c15.92,0.87 31.76,0.87 47.5,0c0.49,1.29 0.66,2.63 0.5,4z" fill="#f0f2f2" id="svg_142"/>
  </g>
  <g id="svg_143">
   <path d="m242.5,265.5c0.54,1.62 0.87,3.28 1,5c0.1,3.2 -0.57,6.2 -2,9c-4.23,5.59 -9.9,7.43 -17,5.5c-3.91,-2.41 -6.91,-5.57 -9,-9.5c0,-3 0,-6 0,-9c8.6,-11.62 17.6,-11.96 27,-1z" fill="#385b9a" id="svg_144"/>
  </g>
  <g id="svg_145">
   <path d="m163.5,275.5c-4.6,9.96 -11.93,12.63 -22,8c-2.12,-2.1 -3.78,-4.43 -5,-7c-1.23,-3.65 -1.23,-7.32 0,-11c1.81,-2.64 4.14,-4.81 7,-6.5c13.4,-2.77 20.07,2.73 20,16.5z" fill="#3a5c99" id="svg_146"/>
  </g>
  <g id="svg_147">
   <path d="m6.5,360.5c1.33,0.67 1.33,0.67 0,0z" fill="#f9faf9" id="svg_148"/>
  </g>
  <g id="svg_149">
   <path d="m492.5,365.5c1.33,0.67 1.33,0.67 0,0z" fill="#f9faf9" id="svg_150"/>
  </g>
  <g id="svg_151">
   <path d="m78.5,362.5c1.33,0.67 1.33,0.67 0,0z" fill="#f9faf9" id="svg_152"/>
  </g>
  <g id="svg_153">
   <path d="m314.5,274.5c1.33,0.67 1.33,0.67 0,0z" fill="#f9faf9" id="svg_154"/>
  </g>
  <g id="svg_155">
   <path d="m362.5,284.5c1.33,0.67 1.33,0.67 0,0z" fill="#f9faf9" id="svg_156"/>
  </g>
  <g id="svg_157">
   <path d="m163.5,275.5c0.49,0.97 0.99,1.97 1.5,3c0.4,-0.23 0.56,-0.56 0.5,-1c3.49,1.26 6.66,1.26 9.5,0c0.5,0.5 1,1 1.5,1.5c9.89,1.96 19.72,1.79 29.5,-0.5c2.38,0.09 4.71,0.43 7,1c1.6,-0.86 2.43,-2.19 2.5,-4c2.09,3.93 5.09,7.09 9,9.5c7.1,1.93 12.77,0.09 17,-5.5c0,0.67 0,1.33 0,2c-2.31,4.32 -5.98,6.32 -11,6c-27.22,-0.02 -54.22,-0.02 -81,0c-3.85,0.72 -6.52,-0.61 -8,-4c10.07,4.63 17.4,1.96 22,-8z" fill="#b7bed3" id="svg_158"/>
  </g>
  <g id="svg_159">
   <path d="m136.5,275.5c1.22,2.57 2.88,4.9 5,7c1.48,3.39 4.15,4.72 8,4c26.78,-0.02 53.78,-0.02 81,0c5.02,0.32 8.69,-1.68 11,-6c1.8,0.55 3.47,1.38 5,2.5c-1.9,1.87 -4.07,3.37 -6.5,4.5c-6.35,0 -12.68,0 -19,0c-3.64,1.69 -7.47,2.35 -11.5,2c-3.6,0.29 -7.1,0.96 -10.5,2c-4.26,-0.96 -8.26,-0.96 -12,0c-0.75,-0.63 -1.58,-1.13 -2.5,-1.5c-11.44,-0.08 -22.78,-0.91 -34,-2.5c-2.59,0.03 -5.09,0.36 -7.5,1c-4.87,-1.75 -10.04,-2.59 -15.5,-2.5c-2.45,-0.73 -4.78,-1.73 -7,-3c5.24,-1.98 10.41,-3.14 15.5,-3.5c0.49,-1.29 0.66,-2.63 0.5,-4z" fill="#d5d8e3" id="svg_160"/>
  </g>
  <g id="svg_161">
   <path d="m46.5,290.5c1.33,0.67 1.33,0.67 0,0z" fill="#f9faf9" id="svg_162"/>
  </g>
  <g id="svg_163">
   <path d="m243.5,270.5c1.13,6.75 5.13,9.25 12,7.5c1.66,-2.45 3.66,-2.95 6,-1.5c-20.73,16.25 -44.06,26.91 -70,32c0.12,-1.09 0.79,-1.75 2,-2c6.76,-1.31 13.26,-3.31 19.5,-6c0.33,0.33 0.67,0.67 1,1c4.11,-3.98 8.95,-6.81 14.5,-8.5c-2.07,-0.54 -3.9,-0.04 -5.5,1.5c-0.32,-1.8 -0.98,-2.13 -2,-1c-1.08,-0.79 -2.25,-1.46 -3.5,-2c0.01,0.94 -0.49,1.61 -1.5,2c-2.61,-0.34 -4.78,-1.34 -6.5,-3c4.03,0.35 7.86,-0.31 11.5,-2c6.32,0 12.65,0 19,0c2.43,-1.13 4.6,-2.63 6.5,-4.5c-1.53,-1.12 -3.2,-1.95 -5,-2.5c0,-0.67 0,-1.33 0,-2c1.43,-2.8 2.1,-5.8 2,-9z" fill="#e4e4e9" id="svg_164"/>
  </g>
  <g id="svg_165">
   <path d="m112.5,398.5c1.33,0.67 1.33,0.67 0,0z" fill="#f9faf9" id="svg_166"/>
  </g>
  <g id="svg_167">
   <path d="m82.5,308.5c1.33,0.67 1.33,0.67 0,0z" fill="#f9faf9" id="svg_168"/>
  </g>
  <g id="svg_169">
   <path d="m252.5,341.5c1.33,0.67 1.33,0.67 0,0z" fill="#f9faf9" id="svg_170"/>
  </g>
  <g id="svg_171">
   <path d="m127.5,411.5c1.33,0.67 1.33,0.67 0,0z" fill="#f9faf9" id="svg_172"/>
  </g>
  <g id="svg_173">
   <path d="m162.5,371.5c1.33,0.67 1.33,0.67 0,0z" fill="#f9faf9" id="svg_174"/>
  </g>
  <g id="svg_175">
   <path d="m40.5,429.5c1.33,0.67 1.33,0.67 0,0z" fill="#f9faf9" id="svg_176"/>
  </g>
  <g id="svg_177">
   <path d="m304.5,375.5c1.33,0.67 1.33,0.67 0,0z" fill="#f9faf9" id="svg_178"/>
  </g>
  <g id="svg_179">
   <path d="m261.5,376.5c1.33,0.67 1.33,0.67 0,0z" fill="#f9faf9" id="svg_180"/>
  </g>
  <g id="svg_181">
   <path d="m87.5,378.5c1.33,0.67 1.33,0.67 0,0z" fill="#f9faf9" id="svg_182"/>
  </g>
  <g id="svg_183">
   <path d="m23.5,449.5c1.33,0.67 1.33,0.67 0,0z" fill="#f9faf9" id="svg_184"/>
  </g>
  <g id="svg_185">
   <path d="m141.5,394.5c1.33,0.67 1.33,0.67 0,0z" fill="#f9faf9" id="svg_186"/>
  </g>
  <g id="svg_187">
   <path d="m285.5,396.5c1.33,0.67 1.33,0.67 0,0z" fill="#f9faf9" id="svg_188"/>
  </g>
  <g id="svg_189">
   <path d="m345.5,452.5c1.33,0.67 1.33,0.67 0,0z" fill="#f9faf9" id="svg_190"/>
  </g>
  <g id="svg_191">
   <path d="m63.5,455.5c1.33,0.67 1.33,0.67 0,0z" fill="#f9faf9" id="svg_192"/>
  </g>
  <g id="svg_193">
   <path d="m328.5,458.5c1.33,0.67 1.33,0.67 0,0z" fill="#f9faf9" id="svg_194"/>
  </g>
  <g id="svg_195">
   <path d="m110.5,478.5c1.33,0.67 1.33,0.67 0,0z" fill="#f9faf9" id="svg_196"/>
  </g>
  <g id="svg_197">
   <path d="m462.5,481.5c1.33,0.67 1.33,0.67 0,0z" fill="#f9faf9" id="svg_198"/>
  </g>
  <g id="svg_199">
   <path d="m72.5,482.5c1.33,0.67 1.33,0.67 0,0z" fill="#f9faf9" id="svg_200"/>
  </g>
  <g id="svg_201">
   <path d="m53.5,484.5c1.33,0.67 1.33,0.67 0,0z" fill="#f9faf9" id="svg_202"/>
  </g>
  <g id="svg_203">
   <path d="m240.5,496.5c1.33,0.67 1.33,0.67 0,0z" fill="#f9faf9" id="svg_204"/>
  </g>
 </g>
</svg>