<?xml version="1.0"?>
<svg width="1080" height="1080" xmlns="http://www.w3.org/2000/svg" xmlns:svg="http://www.w3.org/2000/svg" version="1.1">
 <g class="layer">
  <title>Layer 1</title>
  <path d="m0,0c0.66,0 1.32,0 2,0c0.34,0.7 0.67,1.41 1.02,2.13c6.15,12.8 12.28,25.23 20.74,36.7c2.24,3.17 2.24,3.17 3.83,6.39c1.38,2.73 2.45,4.07 4.79,5.97c0.7,0.58 1.41,1.17 2.13,1.77c0.82,0.68 1.64,1.35 2.49,2.04c1.52,1.28 3.03,2.57 4.55,3.86c1.67,1.41 3.34,2.83 5.02,4.24c2.81,2.37 5.61,4.75 8.42,7.14c2.15,1.82 4.31,3.64 6.48,5.46c1.46,1.24 2.92,2.49 4.37,3.75c10,8.46 20.51,14.09 32.85,18.43c1.16,0.41 2.32,0.83 3.51,1.26c2.41,0.87 4.82,1.73 7.23,2.59c3.45,1.23 6.91,2.48 10.36,3.73c6.06,2.21 12.13,4.38 18.21,6.54c0.75,0.27 1.49,0.53 2.26,0.81c8.24,2.93 16.47,5.2 24.99,7.1c3.37,0.75 6.72,1.58 10.07,2.43c9.13,2.31 18.3,4.42 27.49,6.46c2.64,0.59 5.27,1.18 7.91,1.78c7.5,1.69 15.01,3.38 22.54,4.95c23.08,4.9 45.24,12.41 66.49,22.66c1.16,0.56 2.32,1.11 3.51,1.69c17.47,8.69 32.72,20.66 46.74,34.12c0.56,0.54 1.12,1.07 1.7,1.63c4.11,4.01 7.74,8.2 11.18,12.81c0.51,0.69 1.02,1.37 1.55,2.08c7.5,10.27 13.31,21.37 18.38,33c1.07,2.58 1.07,2.58 3.19,4.48c2.8,0.3 2.8,0.3 6.11,0.26c1.93,0.01 1.93,0.01 3.9,0.02c0.69,0 1.38,0 2.09,-0.01c2.16,0 4.33,0.02 6.5,0.03c6.16,0.05 12.32,0.07 18.48,0.08c3.77,0.01 7.54,0.03 11.31,0.07c1.43,0.01 2.86,0.01 4.29,0c9.3,-0.03 19.27,-0.01 26.55,6.56c6.11,6.63 7.24,11.45 7.08,20.44c-0.65,7.49 -3.44,12.44 -9.14,17.26c-7.32,4.35 -13.77,4.7 -22.11,4.58c-1.12,0 -2.24,-0.01 -3.39,-0.01c-3.56,-0.02 -7.11,-0.05 -10.67,-0.09c-2.42,-0.02 -4.84,-0.03 -7.26,-0.04c-5.91,-0.04 -11.83,-0.09 -17.74,-0.15c1.55,7.52 3.14,14.96 5.38,22.31c0.43,1.45 0.86,2.89 1.3,4.33c0.22,0.72 0.44,1.44 0.66,2.19c1.08,3.55 2.12,7.11 3.16,10.67c1.22,4.16 2.44,8.32 3.68,12.47c1.9,6.4 3.76,12.8 5.55,19.24c0.46,1.63 0.46,1.63 0.92,3.3c0.59,2.14 1.18,4.27 1.76,6.41c1.41,5.1 2.92,10.14 4.62,15.15c1.89,5.59 3.47,11.23 4.97,16.93c2.29,8.56 2.29,8.56 5,17c2.28,6.55 4,13.25 5.79,19.95c1.28,4.73 2.59,9.42 4.21,14.05c1.87,5.37 3.34,10.82 4.81,16.31c2.38,8.86 4.93,17.65 7.65,26.4c1.36,4.38 2.68,8.74 3.85,13.17c3.58,13.49 3.58,13.49 12.81,23.57c11.49,5.99 25.46,3.61 37.93,2.45c1.97,-0.18 1.97,-0.18 3.97,-0.36c3.54,-0.31 7.09,-0.64 10.63,-0.96c3.81,-0.35 7.62,-0.69 11.43,-1.03c14.35,-1.29 28.7,-2.62 43.05,-3.97c4.96,-0.46 9.91,-0.93 14.87,-1.39c1.88,-0.18 1.88,-0.18 3.8,-0.36c34.51,-3.23 69.06,-6.02 103.6,-8.86c8.7,-0.72 17.41,-1.45 26.11,-2.18c6.37,-0.54 12.73,-1.04 19.1,-1.53c4.08,-0.32 8.16,-0.65 12.23,-0.99c1.9,-0.15 3.8,-0.3 5.7,-0.43c15.06,-0.92 15.06,-0.92 27.5,-8.86c3.84,-6.19 6.21,-12.55 8.4,-19.48c0.38,-1.19 0.77,-2.37 1.16,-3.59c2.77,-8.65 5.27,-17.36 7.66,-26.12c2.43,-8.87 5.11,-17.64 7.87,-26.41c0.3,-0.99 0.3,-0.99 0.62,-2c2.2,-7.02 4.45,-14 6.8,-20.97c2,-5.95 3.78,-11.94 5.48,-17.98c1.61,-5.7 3.39,-11.34 5.16,-16.99c0.59,-1.89 1.18,-3.78 1.77,-5.68c0.4,-1.29 0.81,-2.59 1.21,-3.89c1.41,-4.52 2.81,-9.04 4.21,-13.57c7.16,-23.22 7.16,-23.22 10.77,-33.67c2.46,-7.21 4.5,-13.97 3.85,-21.63c-1.81,-2.67 -2.88,-2.96 -6,-4c-1.39,-0.08 -2.79,-0.11 -4.19,-0.11c-0.84,0 -1.68,0 -2.55,0c-0.91,0 -1.82,0 -2.76,0c-1.94,-0.01 -3.88,-0.02 -5.82,-0.04c-3.05,-0.02 -6.09,-0.04 -9.14,-0.03c-22.45,0.07 -22.45,0.07 -31.54,-6.82c-5.11,-5.13 -6.96,-11.2 -7.44,-18.37c0.17,-6.19 2.99,-10.9 7.05,-15.42c8.21,-7.63 17.13,-7.65 27.82,-7.57c1.4,0 2.8,0 4.2,0c2.92,0 5.84,0.01 8.77,0.02c3.72,0.03 7.44,0.03 11.16,0.02c2.89,0 5.78,0 8.66,0.01c1.37,0.01 2.74,0.01 4.11,0.01c15.46,-0.01 27.96,2.08 39.62,12.91c6.38,7.44 9.23,15.95 9.24,25.58c0.01,0.73 0.02,1.46 0.03,2.21c0.02,5.16 -0.76,9.66 -2.22,14.6c-0.27,0.96 -0.27,0.96 -0.55,1.95c-0.58,2 -1.17,3.99 -1.76,5.99c-0.22,0.73 -0.44,1.47 -0.66,2.23c-0.88,2.96 -1.76,5.91 -2.64,8.87c-0.59,1.98 -1.18,3.97 -1.76,5.96c-0.21,0.68 -0.41,1.35 -0.61,2.05c-1.29,4.38 -2.53,8.76 -3.75,13.16c-0.3,1.09 -0.61,2.18 -0.92,3.3c-0.59,2.14 -1.18,4.27 -1.76,6.41c-1.71,6.18 -3.61,12.26 -5.67,18.33c-1.21,3.62 -2.3,7.27 -3.36,10.94c-0.43,1.47 -0.85,2.94 -1.28,4.42c-0.22,0.73 -0.43,1.46 -0.65,2.22c-0.6,2.05 -1.2,4.11 -1.81,6.16c-1.9,6.39 -3.77,12.79 -5.55,19.22c-0.3,1.09 -0.61,2.18 -0.92,3.3c-0.59,2.14 -1.18,4.27 -1.76,6.41c-1.71,6.18 -3.61,12.26 -5.67,18.33c-1.21,3.62 -2.3,7.27 -3.36,10.94c-0.43,1.47 -0.85,2.94 -1.28,4.42c-0.22,0.73 -0.43,1.46 -0.65,2.22c-0.6,2.05 -1.2,4.11 -1.81,6.16c-1.84,6.18 -3.65,12.36 -5.34,18.58c-3.04,11.19 -6.28,22.28 -9.9,33.29c-0.62,1.89 -1.24,3.79 -1.85,5.69c-5.13,15.38 -11.74,30.6 -26.73,38.45c-11.29,5.12 -22.39,6.29 -34.62,7.31c-2.21,0.2 -4.42,0.4 -6.62,0.6c-8.25,0.73 -16.5,1.41 -24.76,2.09c-0.85,0.07 -1.7,0.14 -2.58,0.21c-24.96,2.05 -49.93,4.03 -74.89,6c-22.37,1.77 -44.73,3.58 -67.09,5.42c-0.87,0.07 -1.75,0.14 -2.64,0.21c-26.59,2.19 -53.15,4.49 -79.72,6.91c-13.26,1.21 -26.52,2.39 -39.79,3.44c-1.15,0.09 -2.31,0.19 -3.5,0.28c-5.33,0.42 -10.66,0.84 -15.99,1.24c-1.85,0.14 -3.71,0.29 -5.56,0.43c-1.22,0.09 -1.22,0.09 -2.46,0.18c-10.96,0.73 -10.96,0.73 -20.15,6.06c-0.94,0.87 -0.94,0.87 -1.9,1.77c-6.39,6.85 -6.16,13.89 -6.02,22.88c0.41,5.68 1.79,10.52 5.93,14.58c1.36,1.39 1.36,1.39 1.36,3.39c1.32,0.33 2.64,0.66 4,1c0,0.66 0,1.32 0,2c4.54,0.72 8.89,1.12 13.48,1.12c1.27,0 2.54,0.01 3.85,0.01c1.39,-0.01 2.79,-0.01 4.18,-0.01c1.49,0 2.98,0 4.47,0c3.24,0 6.48,0 9.72,0c5.26,-0.01 10.53,-0.01 15.8,-0.01c6.66,0 13.31,0 19.97,0c13.09,-0.01 26.17,0 39.25,0.02c2.06,0 4.13,0 6.19,0c4.17,0.01 8.34,0.01 12.51,0.01c10.72,0.01 21.45,0.02 32.17,0.03c1.61,0 1.61,0 3.26,0.01c17.43,0.01 34.86,0 52.29,-0.01c17.91,-0.01 35.81,0 53.72,0.04c11.04,0.02 22.08,0.02 33.12,-0.01c7.57,-0.01 15.13,0 22.7,0.02c4.37,0.02 8.73,0.02 13.09,0c4,-0.02 8,-0.01 12,0.02c1.44,0 2.89,0 4.33,-0.02c9.51,-0.09 16,1.37 23.9,6.78c0,0.66 0,1.32 0,2c0.66,0 1.32,0 2,0c4.57,6.61 6.1,11.98 5,20c-1.9,6.32 -5.42,11.8 -11.11,15.29c-4.89,2.34 -9.46,3.71 -14.89,3.71c-2.5,-1.81 -2.5,-1.81 -4,-4c0,-0.66 0,-1.32 0,-2c-0.66,0 -1.32,0 -2,0c-0.33,-0.99 -0.66,-1.98 -1,-3c-5.39,-5.12 -11.23,-8.99 -18,-12c0,-0.66 0,-1.32 0,-2c-1.03,-0.14 -2.06,-0.29 -3.12,-0.44c-2.26,-0.33 -4.52,-0.67 -6.77,-1.08c-17.47,-2.7 -36.13,-1.84 -51.11,8.21c-4.48,3.53 -7.87,7.55 -11.15,12.21c-2.89,3.28 -5.73,4.01 -10.04,4.35c-1.22,0 -2.43,0 -3.68,0c-0.68,0.01 -1.36,0.01 -2.06,0.01c-2.26,0.01 -4.53,0.01 -6.8,0c-1.62,0 -3.25,0.01 -4.88,0.01c-4.42,0.01 -8.84,0 -13.25,0c-4.63,-0.01 -9.25,0 -13.87,0c-7.77,0.01 -15.53,0 -23.3,-0.01c-8.97,-0.01 -17.95,-0.01 -26.92,0c-7.71,0.01 -15.42,0.01 -23.12,0.01c-4.61,0 -9.21,0 -13.81,0c-4.33,0.01 -8.66,0 -12.98,-0.01c-1.59,0 -3.18,0 -4.77,0.01c-2.16,0 -4.33,-0.01 -6.5,-0.02c-1.21,0 -2.43,0 -3.68,0c-4.22,-0.33 -7.08,-1.12 -10.08,-4.17c-0.59,-0.75 -1.19,-1.5 -1.8,-2.27c-9.17,-10.68 -23.18,-18.5 -37.31,-19.81c-14.61,-0.95 -26.74,1.79 -39,10c-2.5,2.25 -4.78,4.56 -7,7.08c-3.37,3.24 -6.19,3.89 -10.81,4.05c-15.04,-2.21 -28.26,-13.19 -37.06,-25c-8.63,-13.3 -12.72,-27.09 -12.63,-42.88c0.01,-1.14 0.01,-2.27 0.02,-3.44c0.39,-18.77 8.07,-34.81 20.48,-48.81c0.53,-0.61 1.06,-1.22 1.61,-1.86c6.21,-6.7 14.74,-13.1 23.39,-16.14c-0.58,-2.4 -1.16,-4.79 -1.75,-7.19c-0.16,-0.65 -0.31,-1.31 -0.48,-1.98c-1.37,-5.55 -3.03,-11 -4.73,-16.46c-1.64,-5.32 -3.21,-10.66 -4.79,-15.99c-0.7,-2.38 -1.41,-4.76 -2.11,-7.14c-0.35,-1.2 -0.71,-2.4 -1.08,-3.64c-2.01,-6.82 -4.03,-13.64 -6.05,-20.45c-1.7,-5.73 -3.39,-11.45 -5.08,-17.18c-3.19,-10.81 -6.41,-21.6 -9.85,-32.33c-1.87,-5.85 -3.51,-11.74 -5.12,-17.67c-1.64,-5.98 -3.49,-11.88 -5.4,-17.78c-2.31,-7.18 -4.52,-14.37 -6.56,-21.63c-13.63,-48.3 -29.91,-91.63 -65,-128.56c-0.62,-0.68 -1.23,-1.36 -1.87,-2.07c-31.56,-33.67 -78.83,-45.76 -122.94,-51.37c-1.67,-0.21 -3.34,-0.43 -5,-0.65c-10.23,-1.31 -20.46,-2.55 -30.7,-3.73c-47.44,-5.48 -90.14,-12.12 -126.49,-45.18c-0.7,-0.63 -1.39,-1.25 -2.11,-1.89c-19.75,-18.66 -31.29,-45.9 -32.24,-72.71c-0.65,-23.17 1.81,-47.32 12.35,-68.4z" fill="#3C61A2" id="svg_2" transform="translate(16,200)"/>
  <path d="m0,0c0.78,0.2 1.56,0.41 2.36,0.62c23.15,6.2 44.58,15.31 62.64,31.38c0.85,0.72 1.7,1.44 2.57,2.18c20.5,17.67 33.13,42.11 40.43,67.82c0.24,0.85 0.49,1.69 0.74,2.57c10.41,37.42 3.34,74.73 -15.23,108.18c-5.61,9.72 -12.82,18.12 -20.51,26.25c-0.82,0.88 -1.64,1.77 -2.48,2.68c-19.64,20.51 -45.72,34.08 -73.52,39.32c-1.71,0.34 -1.71,0.34 -3.45,0.68c-24.58,4.07 -51.96,2.62 -74.91,-7.56c-0.73,-0.32 -1.45,-0.64 -2.2,-0.97c-1.35,-0.61 -2.7,-1.25 -4.03,-1.91c-9.57,-4.39 -18.79,-3.09 -28.36,0.35c-4.91,1.87 -9.76,3.85 -14.61,5.85c-2.99,1.21 -5.99,2.41 -8.98,3.6c-1.85,0.75 -3.7,1.5 -5.54,2.25c-1.26,0.52 -1.26,0.52 -2.54,1.04c-0.72,0.3 -1.45,0.6 -2.2,0.9c-2.37,0.84 -4.71,1.33 -7.18,1.77c1.22,-8.78 2.66,-17.26 5.36,-25.71c4.15,-13.03 7.41,-29.38 0.97,-42.26c-1.96,-3 -4.2,-5.74 -6.47,-8.51c-17.64,-23.87 -22.07,-58.78 -18.32,-87.33c0.61,-3.79 1.5,-7.48 2.46,-11.19c0.29,-1.24 0.58,-2.49 0.88,-3.77c7,-28.46 22.95,-53.12 44.12,-73.23c0.59,-0.57 1.17,-1.14 1.77,-1.72c6.28,-5.87 13.2,-10.54 20.44,-15.14c1.55,-0.98 3.08,-2 4.61,-3.01c13.66,-8.61 30.21,-14.83 46.18,-17.13c1.72,-0.27 1.72,-0.27 3.48,-0.55c16.63,-2 35.29,-1.77 51.52,2.55z" fill="#3C61A2" id="svg_3" transform="translate(683,407)"/>
  <path d="m0,0c4.51,2.09 8.5,4.29 12.5,7.25c6.13,4.39 12.73,7.62 19.53,10.82c1.77,0.84 3.54,1.7 5.3,2.56c9.91,4.59 20.29,7.11 30.87,9.69c2.21,0.54 4.41,1.11 6.61,1.69c4.16,1.04 8.3,1.65 12.55,2.17c1.17,0.15 1.17,0.15 2.37,0.31c2.53,0.32 5.05,0.63 7.58,0.95c1.77,0.22 3.54,0.45 5.31,0.67c9.74,1.23 19.49,2.36 29.26,3.39c14.18,1.51 28.25,3.65 42.33,5.9c3.39,0.54 6.79,1.05 10.19,1.56c25.26,3.93 50.91,11.53 71.6,27.04c1.17,0.86 1.17,0.86 2.37,1.74c45.68,34.44 63.24,91.1 80.63,143.26c-3.16,-1.46 -5.82,-3.26 -8.62,-5.31c-17.5,-12.24 -37.28,-14.95 -58.22,-12.18c-3.44,0.7 -6.78,1.56 -10.16,2.49c-1.42,0.35 -2.84,0.69 -4.27,1.03c-10.06,2.46 -19.81,5.59 -29.55,9.12c-10.15,3.65 -20.03,6.22 -30.74,7.54c-1.45,0.19 -1.45,0.19 -2.92,0.39c-6.21,0.79 -12.26,1.08 -18.52,0.92c-1.12,-0.01 -2.25,-0.03 -3.41,-0.04c-26.46,-1.24 -49.54,-14.02 -67.21,-33.38c-10.78,-12.36 -25.42,-35.47 -24.38,-52.58c3.37,-0.16 5.99,0 9.25,0.94c24.41,6.91 53.46,0.38 77.75,-3.94c-3.51,-1.05 -6.86,-1.21 -10.51,-1.36c-17.24,-0.8 -33.67,-2.5 -50.49,-6.64c-1.11,-0.27 -2.21,-0.54 -3.35,-0.82c-23.9,-5.92 -47.03,-13.5 -65.65,-30.18c-0.63,-0.5 -1.26,-1 -1.91,-1.51c-13.49,-10.71 -21.98,-26.73 -28.09,-42.49c-0.37,-0.9 -0.74,-1.81 -1.12,-2.74c-5.68,-15.2 -7.72,-32.12 -6.88,-48.26z" fill="#3B60A2" id="svg_4" transform="translate(39,370)"/>
  <path d="m0,0c18.02,15.15 29.1,36.16 31.97,59.5c1.52,28.41 -7.23,52.59 -25.81,74.09c-12.58,13.28 -29.52,21.21 -47.19,24.91c-0.89,0.19 -1.77,0.38 -2.68,0.57c-20.48,2.61 -38.87,-0.35 -57.32,-9.57c-5.8,-0.41 -10.52,0.75 -16,2.4c-0.83,0.25 -1.66,0.49 -2.52,0.74c-2.64,0.78 -5.28,1.57 -7.92,2.36c-1.8,0.53 -3.6,1.06 -5.4,1.59c-4.39,1.29 -8.77,2.59 -13.16,3.91c-1.28,-4.21 -0.34,-7.33 0.87,-11.45c0.41,-1.48 0.83,-2.97 1.24,-4.45c0.66,-2.33 1.32,-4.65 1.99,-6.97c4.54,-14.53 4.54,-14.53 2.73,-29.27c-0.52,-0.84 -1.04,-1.68 -1.58,-2.55c-9.24,-17.21 -9.95,-38.92 -5.81,-57.81c4.29,-14.22 11.05,-27.11 20.56,-38.5c0.78,-1.06 1.57,-2.11 2.37,-3.19c32.74,-35.07 87.06,-36.04 123.66,-6.31z" fill="#3C61A2" id="svg_5" transform="translate(710.03125,475.50390625)"/>
  <path d="m0,0c1.89,-0.01 1.89,-0.01 3.82,-0.01c1.96,0.02 1.96,0.02 3.96,0.03c1.31,-0.01 2.61,-0.02 3.96,-0.03c1.26,0 2.52,0.01 3.82,0.01c1.15,0 2.29,0.01 3.47,0.01c5.25,0.63 8.38,2.41 11.88,6.33c1.17,1.51 1.17,1.51 2.37,3.06c2.68,3.2 2.68,3.2 6.53,4.46c0.94,-0.01 1.87,-0.02 2.83,-0.03c1.03,0.01 2.07,0.02 3.13,0.03c2.16,-0.02 4.32,-0.04 6.47,-0.06c5.94,0.06 10.26,0.57 15.33,3.74c6.71,7.28 6.31,15.23 6.24,24.61c0.01,1.43 0.01,2.86 0.01,4.29c0.01,2.98 0,5.97 -0.02,8.95c-0.02,3.81 -0.01,7.61 0.02,11.42c0.01,2.95 0.01,5.9 0,8.84c-0.01,1.41 0,2.81 0.01,4.22c0.07,13.57 0.07,13.57 -4.55,19.53c-4.94,4.81 -10.14,6.25 -16.94,6.24c-1.15,0 -2.29,0.01 -3.48,0.01c-1.23,0 -2.45,-0.01 -3.72,-0.01c-1.95,0.01 -3.9,0.02 -5.86,0.03c-4.79,0.03 -9.58,0.04 -14.37,0.03c-2.69,0 -5.38,0.01 -8.07,0.03c-2.53,0.02 -5.06,0.02 -7.58,0c-9.81,0.11 -17.45,2.6 -24.54,9.61c-4.19,3.94 -8.59,6.98 -13.44,10.06c0,-6.6 0,-13.2 0,-20c-3.46,0.09 -3.46,0.09 -7,0.19c-7.59,0.06 -12.8,-0.62 -18.87,-5.5c-3.71,-4.69 -4.38,-9.26 -4.42,-15.12c-0.01,-1.26 -0.02,-2.51 -0.04,-3.8c0,-1.36 0,-2.72 0,-4.08c-0.01,-1.4 -0.02,-2.81 -0.02,-4.22c-0.02,-2.94 -0.02,-5.88 -0.02,-8.83c0,-3.75 -0.03,-7.51 -0.06,-11.26c-0.02,-2.91 -0.03,-5.81 -0.03,-8.72c0,-1.38 -0.01,-2.76 -0.02,-4.15c-0.08,-7.92 0.07,-13.8 4.48,-20.51c4.29,-4.08 7.52,-5.11 13.33,-5.18c1.57,-0.03 1.57,-0.03 3.17,-0.07c2.2,-0.04 4.39,-0.07 6.59,-0.09c6.23,-0.17 10.22,-0.4 14.91,-4.66c0.66,-1.01 1.32,-2.02 2,-3.06c3.7,-5.43 8.42,-6.32 14.72,-6.34z" fill="#4063A1" id="svg_7" transform="translate(774.71875,287.6015625)"/>
  <path d="m0,0c18.02,15.15 29.1,36.16 31.97,59.5c1.52,28.41 -7.23,52.59 -25.81,74.09c-12.58,13.28 -29.52,21.21 -47.19,24.91c-0.89,0.19 -1.77,0.38 -2.68,0.57c-20.48,2.61 -38.87,-0.35 -57.32,-9.57c-5.8,-0.41 -10.52,0.75 -16,2.4c-0.83,0.25 -1.66,0.49 -2.52,0.74c-2.64,0.78 -5.28,1.57 -7.92,2.36c-1.8,0.53 -3.6,1.06 -5.4,1.59c-4.39,1.29 -8.77,2.59 -13.16,3.91c-1.28,-4.21 -0.34,-7.33 0.87,-11.45c0.41,-1.48 0.83,-2.97 1.24,-4.45c0.66,-2.33 1.32,-4.65 1.99,-6.97c4.54,-14.53 4.54,-14.53 2.73,-29.27c-0.52,-0.84 -1.04,-1.68 -1.58,-2.55c-9.24,-17.21 -9.95,-38.92 -5.81,-57.81c4.29,-14.22 11.05,-27.11 20.56,-38.5c0.78,-1.06 1.57,-2.11 2.37,-3.19c32.74,-35.07 87.06,-36.04 123.66,-6.31zm-108.03,13.5c-0.7,0.6 -1.39,1.2 -2.11,1.82c-13.34,12.28 -22.57,30.37 -24.18,48.36c-0.33,11.88 2.08,23.19 7.11,33.94c2.67,6.51 3.5,12.47 3.43,19.44c0.01,0.71 0.01,1.43 0.02,2.17c-0.02,4.75 -0.84,8.7 -2.27,13.27c-0.17,2.79 -0.17,2.79 0,5c3.29,-0.6 6.29,-1.44 9.44,-2.57c11.75,-3.46 20.5,-1.61 31,3.81c16.94,8.36 35.67,6.88 53.12,1.01c20.5,-8.03 35,-21.62 44.15,-41.76c3.21,-8.71 4.85,-16.7 4.79,-25.99c-0.01,-1.04 -0.01,-2.08 -0.02,-3.15c-0.48,-20.44 -7.68,-39.03 -22.48,-53.35c-0.64,-0.64 -1.27,-1.27 -1.93,-1.92c-15.57,-14.61 -36.69,-19.61 -57.5,-19.29c-16.65,0.56 -30.45,8.17 -42.57,19.21z" fill="#EDF2F7" id="svg_8" transform="translate(710.03125,475.50390625)"/>
  <path d="m0,0c0.83,0 1.66,0 2.51,0c40.14,0.12 80.64,5.44 118.99,17.5c2.89,0.91 5.79,1.76 8.69,2.63c18.69,5.83 36.62,13.08 54.5,21.06c1.01,0.45 2.02,0.89 3.06,1.36c22.14,9.93 43.36,22.29 62.94,36.64c0.67,0.49 1.35,0.99 2.05,1.5c16.34,12.02 32.01,24.78 46.85,38.61c4.31,4.03 8.7,7.96 13.1,11.89c0.02,-1.16 0.05,-2.32 0.08,-3.51c0.05,-1.54 0.11,-3.08 0.17,-4.62c0.02,-1.14 0.02,-1.14 0.04,-2.3c0.23,-5.36 1.14,-8.5 4.71,-12.57c3,0 3,0 5.62,2.44c4.98,6.39 3.62,16.6 3.69,24.31c0.03,1.01 0.06,2.03 0.09,3.07c0.01,0.98 0.01,1.96 0.02,2.97c0.03,1.32 0.03,1.32 0.05,2.67c-0.66,3.56 -1.79,5.11 -4.47,7.54c-2.74,0.48 -4.85,0.66 -7.58,0.59c-1.1,0 -1.1,0 -2.22,0c-1.55,0 -3.1,-0.02 -4.65,-0.05c-2.35,-0.04 -4.7,-0.04 -7.05,-0.03c-1.51,-0.02 -3.01,-0.03 -4.52,-0.04c-0.7,0 -1.39,0 -2.11,0c-5.01,-0.12 -8.45,-1.3 -12.87,-3.47c-0.31,-2.25 -0.31,-2.25 0,-5c5.28,-5.01 9.22,-5.25 16.25,-5.72c2.71,-0.11 2.71,-0.11 4.75,-1.28c-0.9,-0.76 -1.79,-1.53 -2.71,-2.31c-1.23,-1.04 -2.45,-2.09 -3.67,-3.13c-0.64,-0.55 -1.28,-1.1 -1.94,-1.66c-3.62,-3.1 -7.18,-6.24 -10.68,-9.46c-5.47,-4.95 -11.24,-9.46 -17.08,-13.95c-1.96,-1.52 -3.91,-3.05 -5.86,-4.59c-10.96,-8.58 -22.37,-16.36 -34.06,-23.9c-0.63,-0.41 -1.26,-0.81 -1.91,-1.23c-13.75,-8.81 -28.2,-16.66 -42.92,-23.73c-1.49,-0.71 -2.98,-1.44 -4.46,-2.17c-12.06,-5.88 -24.38,-10.73 -37.02,-15.18c-0.71,-0.25 -1.41,-0.5 -2.14,-0.76c-13.78,-4.85 -27.75,-9.37 -42.05,-12.43c-0.94,-0.2 -1.88,-0.4 -2.84,-0.61c-96.25,-19.91 -200.95,-9.16 -319.66,57.11c-2.8,1.88 -5.57,3.8 -8.32,5.75c-0.72,0.51 -1.44,1.02 -2.19,1.55c-18.17,12.98 -35.78,27.46 -51.22,43.61c-1.26,1.3 -1.26,1.3 -2.54,2.63c-1.67,1.74 -3.33,3.49 -4.97,5.26c-5.7,5.9 -5.7,5.9 -8.86,6.78c-1.91,0.03 -1.91,0.03 -4.9,-0.58c-1,-1 -1,-1 -1.37,-4.21c0.46,-4.78 1.84,-6.16 5.18,-9.54c0.49,-0.51 0.99,-1.02 1.5,-1.54c1.55,-1.59 3.12,-3.15 4.69,-4.71c0.97,-0.99 1.93,-1.98 2.9,-2.98c5.17,-5.26 10.48,-10.24 16.1,-15.02c0.96,-0.85 1.91,-1.7 2.9,-2.57c14.75,-12.98 30.67,-24.67 47.1,-35.43c0.76,-0.5 1.51,-1 2.29,-1.51c38.54,-25.03 80.17,-41.54 124.47,-52.91c2.04,-0.53 4.08,-1.08 6.12,-1.64c16.59,-4.43 33.65,-6.63 50.68,-8.63c1.01,-0.12 2.02,-0.24 3.06,-0.36c14.55,-1.63 29.05,-2.16 43.69,-2.14z" fill="#4A689E" id="svg_9" transform="translate(570.3125,149.8125)"/>
  <path d="m0,0c12.14,-0.73 23.41,4.78 32.8,12.13c8.24,7.42 15.6,17.81 16.61,29.19c0.52,17.98 -2.25,30.36 -14.97,43.91c-10.23,9.51 -24.62,12.96 -38.27,12.63c-12.56,-1.7 -21.85,-7.97 -29.94,-17.54c-0.81,-0.85 -1.63,-1.71 -2.46,-2.59c-8.02,-8.84 -11.49,-19.34 -10.98,-31.28c1.96,-14.01 8.5,-26.48 19.38,-35.63c8.8,-6.45 17.07,-9.56 27.83,-10.82z" fill="#3D62A3" id="svg_10" transform="translate(766.76953125,882.67578125)"/>
  <path d="m0,0c11.35,6 19.99,15.19 23.88,27.69c3.19,12.31 3.7,24.98 -1.94,36.62c-7.09,11.42 -16.99,21.74 -30.3,25.57c-14.4,2.33 -27.12,-0.06 -39.46,-7.94c-8.33,-6.04 -17.84,-16.38 -19.63,-26.89c-0.15,-2.43 -0.17,-4.81 -0.11,-7.24c0.01,-0.87 0.02,-1.74 0.04,-2.63c0.45,-14.72 4.14,-28.07 15.02,-38.62c15.29,-12.46 34.72,-14.86 52.5,-6.56z" fill="#3C62A3" id="svg_11" transform="translate(519.0625,888.6875)"/>
  <path d="m0,0c3.82,0.73 5.29,2.63 7.56,5.69c1.47,2.19 2.9,4.4 4.32,6.62c0.9,1.39 1.81,2.77 2.71,4.15c19.4,29.88 35,61.46 47.29,94.85c0.28,0.77 0.56,1.53 0.85,2.32c4.11,11.32 7.17,23.02 10.15,34.68c0.22,0.87 0.44,1.73 0.67,2.62c1.69,6.75 3.07,13.54 4.33,20.38c0.23,1.23 0.46,2.45 0.7,3.71c4.08,22.16 4.76,44.25 4.73,66.73c0,0.68 0,1.35 0,2.05c0,21.46 -0.64,42.82 -4.25,64.01c-0.17,1.02 -0.34,2.05 -0.51,3.1c-3.74,22.05 -9.17,43.57 -16.24,64.78c-0.39,1.17 -0.39,1.17 -0.78,2.36c-4.73,14.16 -10.2,27.79 -16.65,41.26c-0.55,1.15 -0.55,1.15 -1.11,2.32c-1.91,3.97 -3.89,7.9 -5.92,11.81c-1.01,1.94 -1.99,3.89 -2.97,5.85c-9.56,18.79 -21.46,36.12 -34,53.02c-1.59,2.15 -3.17,4.29 -4.76,6.44c-0.61,0.82 -1.22,1.65 -1.85,2.5c-1.56,2.11 -1.56,2.11 -2.4,5.06c0.61,-0.07 1.22,-0.14 1.84,-0.22c4.53,-0.5 9.05,-0.89 13.6,-1.03c0.81,-0.02 1.61,-0.05 2.44,-0.08c2.66,0.42 3.54,1.19 5.13,3.33c0,2.5 0,2.5 -1,5c-2.44,1.75 -2.44,1.75 -5,3c-0.67,0.33 -1.33,0.66 -2,1c-4.55,0.24 -9.11,0.23 -13.66,0.24c-2.27,0.01 -4.54,0.04 -6.8,0.08c-1.44,0 -2.88,0.01 -4.32,0.01c-1.31,0.01 -2.63,0.02 -3.98,0.03c-3.25,-0.36 -3.25,-0.36 -5.17,-1.5c-1.56,-2.7 -1.45,-4.85 -1.44,-7.96c0,-1.21 0,-2.43 0,-3.67c0.02,-1.27 0.04,-2.54 0.05,-3.85c0,-1.25 0,-2.5 -0.01,-3.78c0.04,-6.82 0.33,-13.06 2.32,-19.6c2.63,-2.56 2.63,-2.56 5,-4c3.52,3.07 4.82,4.83 5.56,9.52c0.23,3.5 0.39,6.98 0.44,10.48c51.18,-53.15 75.93,-133.42 85.02,-204.81c0.09,-0.67 0.17,-1.33 0.26,-2.01c1.24,-9.97 1.88,-19.78 1.86,-29.83c0,-1.76 0,-1.76 0,-3.55c0,-2.47 0,-4.94 0,-7.41c-0.01,-3.74 0,-7.49 0,-11.23c0,-2.42 0,-4.83 0,-7.24c0,-1.66 0,-1.66 0,-3.34c-0.03,-11.94 -1.13,-23.61 -3.01,-35.39c-0.18,-1.14 -0.36,-2.27 -0.54,-3.44c-0.52,-3.25 -1.05,-6.5 -1.58,-9.75c-0.14,-0.8 -0.27,-1.6 -0.4,-2.42c-9.64,-57.36 -34.64,-110.21 -66.98,-158.1c-0.64,-0.96 -1.28,-1.92 -1.94,-2.91c-0.53,-0.79 -1.06,-1.57 -1.61,-2.38c-1.28,-2.61 -1.44,-4.31 -1.08,-7.19c2,-2 2,-2 5.13,-2.31z" fill="#4B699E" id="svg_12" transform="translate(914.125,319.6875)"/>
  <path d="m0,0c1.08,-0.01 2.15,-0.02 3.26,-0.03c10.66,0.11 20.31,2.3 29.74,7.28c0.68,0.35 1.37,0.71 2.07,1.07c4.95,2.61 9.45,5.43 13.68,9.12c0.82,0.69 1.64,1.38 2.48,2.09c5.14,4.45 10.04,9 13.52,14.91c0,0.66 0,1.32 0,2c-0.56,-0.15 -1.12,-0.29 -1.7,-0.44c-17.6,-4.08 -30.77,0.46 -46.32,8.48c-19.72,10.06 -42.96,14.2 -64.46,7.35c-15.78,-6.24 -29.71,-15.13 -41.52,-27.39c-0.33,-0.99 -0.66,-1.98 -1,-3c18.61,-6.02 37.45,-11.3 56.46,-15.87c2.84,-0.69 5.63,-1.45 8.42,-2.33c8.56,-2.55 16.46,-3.19 25.37,-3.24z" fill="#3D63A3" id="svg_14" transform="translate(326.25,586.5625)"/>
  <path d="m0,0c8.41,5.57 12.79,11.74 15.99,21.32c0.64,8.76 0.68,16.32 -4,24c-0.6,1.05 -1.2,2.1 -1.81,3.18c-4.52,5.81 -9.22,9.3 -16.19,11.82c-9.6,1.17 -17.92,0.65 -26,-5c-0.64,-0.44 -1.29,-0.87 -1.95,-1.32c-5.78,-4.4 -9.77,-10.83 -12.05,-17.68c-0.78,-9.79 -0.71,-17.62 5,-26c0.58,-0.91 1.15,-1.82 1.75,-2.75c10.12,-10.13 26.03,-14.72 39.26,-7.57z" fill="#ECF1F7" id="svg_16" transform="translate(799.01171875,317.68359375)"/>
  <path d="m0,0c5.3,5.07 8.63,11.68 9.44,18.94c-0.13,3.93 -1.52,6.7 -3.56,10.01c-1.24,2.9 -1.28,4.92 -0.88,8.05c1.77,2.57 1.77,2.57 4.31,4.81c0.91,0.86 1.82,1.71 2.76,2.6c4.53,4.01 9.16,7.86 13.93,11.59c0.67,0.55 1.35,1.1 2.04,1.67c2.71,2.13 4.73,3.29 8.15,3.89c3.51,-0.7 4.58,-1.8 6.81,-4.56c0.43,-0.74 0.87,-1.48 1.31,-2.25c1.69,-1.75 1.69,-1.75 4.78,-2.1c4.79,0.43 8.03,1.98 12.22,4.23c0.72,0.36 1.43,0.72 2.17,1.1c2.82,1.46 5.26,2.76 7.52,5.02c0.63,6.08 -0.14,11.09 -4,16c-4.45,3.66 -8.1,4.71 -13.75,4.63c-0.73,-0.01 -1.47,-0.02 -2.22,-0.03c-19.99,-0.78 -38.57,-12.42 -52.14,-26.46c-5.49,-6.2 -9.62,-13.23 -13.7,-20.39c-0.39,-0.67 -0.77,-1.35 -1.17,-2.04c-3.76,-6.74 -6.08,-12.91 -5.02,-20.71c1.87,-5.93 4.99,-9.45 10,-13c0.64,-0.45 1.28,-0.91 1.94,-1.38c3.49,-1.05 5.57,-0.7 9.06,0.38z" fill="#EDF3F7" id="svg_17" transform="translate(626,505)"/>
  <path d="m0,0c2.91,0 5.81,-0.02 8.72,-0.05c1.88,0 3.75,0 5.63,0c1.29,-0.01 1.29,-0.01 2.6,-0.03c5.84,0.05 5.84,0.05 7.99,1.76c1.84,2.35 1.65,4.12 1.6,7.07c-0.01,0.95 -0.01,1.9 -0.02,2.87c-0.31,2.84 -0.52,4.45 -2.3,6.7c-3.98,0.87 -7.8,1.12 -11.87,1.13c-1.7,0 -1.7,0 -3.44,0c-1.21,0 -2.43,-0.01 -3.68,-0.01c-1.28,-0.01 -2.56,-0.01 -3.88,-0.01c-12.81,-0.05 -25.62,-0.44 -38.42,-0.91c-3.8,-0.14 -7.6,-0.27 -11.39,-0.41c-10.9,-0.38 -21.8,-0.78 -32.69,-1.3c-1.17,-0.05 -1.17,-0.05 -2.37,-0.1c-3.28,-0.17 -6.45,-0.42 -9.7,-0.91c-4.39,-0.6 -8.71,-0.7 -13.14,-0.77c-1.34,-0.02 -1.34,-0.02 -2.71,-0.05c-3.81,-0.08 -7.62,-0.15 -11.42,-0.22c-2.79,-0.05 -5.58,-0.11 -8.37,-0.16c-0.86,-0.02 -1.73,-0.03 -2.62,-0.04c-6.07,-0.13 -6.07,-0.13 -8.3,-1.24c-1.82,-0.12 -3.65,-0.17 -5.48,-0.19c-1.15,-0.02 -2.3,-0.04 -3.48,-0.05c-1.25,-0.02 -2.51,-0.03 -3.79,-0.05c-1.98,-0.02 -3.95,-0.05 -5.93,-0.08c-3.48,-0.05 -6.96,-0.09 -10.44,-0.13c-33.99,-0.43 -33.99,-0.43 -46.88,-1.5c0,-0.66 0,-1.32 0,-2c1.27,-0.05 1.27,-0.05 2.56,-0.09c39.93,-1.37 79.85,-2.86 119.76,-4.98c0.77,-0.04 1.55,-0.08 2.35,-0.12c5.28,-0.28 10.55,-0.56 15.82,-0.85c1.09,-0.06 1.09,-0.06 2.19,-0.12c8.23,-0.44 16.46,-0.91 24.68,-1.4c16.14,-0.95 32.24,-1.8 48.42,-1.76z" fill="#4365A2" id="svg_18" transform="translate(391.777099609375,730.684326171875)"/>
  <path d="m0,0c0.92,-0.01 1.85,-0.03 2.8,-0.04c0.87,0 1.75,0 2.65,0c1.17,-0.01 1.17,-0.01 2.36,-0.02c2.07,0.25 2.07,0.25 5.07,2.25c1.57,3.73 1.06,8.03 1,12c-5.19,3.15 -9.12,3.41 -15,3.27c-1.35,-0.01 -1.35,-0.01 -2.73,-0.03c-11.83,-0.2 -23.65,-0.84 -35.46,-1.47c-3.97,-0.21 -7.93,-0.42 -11.9,-0.62c-2.56,-0.13 -5.12,-0.26 -7.67,-0.4c-1.75,-0.09 -1.75,-0.09 -3.54,-0.18c-5.01,-0.27 -9.99,-0.58 -14.98,-1.09c-6.74,-0.64 -13.49,-0.77 -20.26,-0.93c-2.41,-0.05 -4.81,-0.11 -7.22,-0.18c-5.13,-0.13 -10.25,-0.25 -15.37,-0.37c-5.93,-0.15 -11.85,-0.29 -17.78,-0.44c-2.34,-0.06 -4.68,-0.12 -7.02,-0.17c-10.04,-0.25 -20.05,-0.74 -30.08,-1.39c-0.33,-0.99 -0.65,-1.98 -1,-3c7.87,-0.27 15.74,-0.53 23.61,-0.78c3.66,-0.12 7.31,-0.24 10.97,-0.37c4.23,-0.14 8.46,-0.28 12.69,-0.41c0.69,-0.03 1.37,-0.05 2.08,-0.07c9.38,-0.3 18.74,-0.47 28.12,-0.34c1.85,0.03 3.69,0 5.53,-0.03c0.33,-0.33 0.66,-0.66 1,-1c3.01,-0.23 5.99,-0.39 9,-0.5c0.98,-0.04 1.95,-0.08 2.95,-0.13c7.19,-0.28 14.38,-0.46 21.57,-0.62c1.37,-0.03 1.37,-0.03 2.77,-0.07c4.65,-0.1 9.3,-0.2 13.95,-0.29c1.74,-0.04 3.48,-0.07 5.21,-0.11c0.81,-0.01 1.61,-0.03 2.44,-0.04c3.53,-0.08 6.71,-0.34 10.11,-1.24c8.01,-1.02 16.07,-1.13 24.13,-1.19z" fill="#3B60A2" id="svg_21" transform="translate(364.125,798.8125)"/>
  <path d="m0,0c6.13,2.75 10.02,6.31 13.34,12.16c1.82,5.48 2.16,11.93 0.09,17.39c-3.33,5.59 -8.02,10.11 -14.09,12.61c-6.88,0.93 -12.7,0.67 -18.39,-3.51c-5.63,-5.18 -7.67,-11.35 -8.05,-18.8c0.11,-5.9 1.88,-10.03 5.44,-14.69c6.4,-6.09 13.13,-7.85 21.66,-5.16z" fill="#4163A2" id="svg_22" transform="translate(790.6640625,325.83984375)"/>
  <path d="m0,0c0.95,-0.03 1.9,-0.05 2.88,-0.08c6.27,-0.02 6.27,-0.02 8.89,2.29c1.26,2.97 1.38,4.97 0.92,8.17c-2.07,2.67 -3.22,3.87 -6.59,4.42c-1,-0.04 -2,-0.08 -3.02,-0.12c-1.16,-0.04 -2.32,-0.08 -3.51,-0.11c-1.28,-0.07 -2.56,-0.13 -3.88,-0.19c-1.38,-0.06 -2.76,-0.12 -4.14,-0.17c-3.87,-0.16 -7.74,-0.35 -11.6,-0.55c-2.61,-0.13 -5.21,-0.26 -7.82,-0.39c-6.49,-0.32 -12.97,-0.64 -19.46,-0.97c-6.35,-0.32 -12.71,-0.64 -19.06,-0.95c-1.33,-0.07 -1.33,-0.07 -2.68,-0.13c-17.08,-0.84 -34.15,-1.42 -51.24,-1.84c0,-1 0,-1.99 0,-3c0.78,-0.02 1.56,-0.03 2.36,-0.05c17.27,-0.35 34.47,-1.11 51.7,-2.39c0.89,-0.07 1.78,-0.13 2.69,-0.2c3.55,-0.27 7.1,-0.53 10.65,-0.8c35.76,-2.69 35.76,-2.69 52.91,-2.94z" fill="#4E6B9F" id="svg_25" transform="translate(392.3125,677.625)"/>
  <path d="m0,0c58.08,0 116.16,0 176,0c-3.5,3.5 -6.9,3.13 -11.63,3.13c-0.68,0.01 -1.35,0.01 -2.05,0.01c-2.27,0.01 -4.55,0.01 -6.82,0.01c-1.63,0 -3.26,0 -4.88,0.01c-4.43,0 -8.85,0.01 -13.28,0.01c-3.69,0 -7.39,0 -11.08,0.01c-8.71,0 -17.42,0.01 -26.13,0.01c-8.99,-0.01 -17.99,0.01 -26.98,0.02c-7.71,0.01 -15.43,0.02 -23.14,0.02c-4.61,0 -9.22,0 -13.83,0.01c-4.34,0.01 -8.67,0.01 -13.01,0c-1.59,0 -3.18,0.01 -4.77,0.01c-2.17,0.01 -4.34,0 -6.52,0c-1.82,0 -1.82,0 -3.68,0c-3.15,-0.25 -5.36,-0.9 -8.2,-2.25c0,-0.33 0,-0.66 0,-1z" fill="#637CA4" id="svg_28" transform="translate(545,894)"/>
  <path d="m0,0c0,2 0,2 -1.5,3.63c-0.5,0.45 -0.99,0.9 -1.5,1.37c0.57,-0.02 1.14,-0.05 1.73,-0.07c7.25,-0.16 14.14,0.82 21.27,2.07c0,0.33 0,0.66 0,1c-33.7,-0.48 -67.34,-1.37 -101,-3c-0.33,-0.99 -0.66,-1.98 -1,-3c7.89,-0.26 15.77,-0.53 23.66,-0.78c3.66,-0.12 7.33,-0.24 10.99,-0.37c15.78,-0.53 31.55,-1.03 47.35,-0.85z" fill="#58739C" id="svg_29" transform="translate(270,804)"/>
  <path d="m0,0c1.39,-0.02 1.39,-0.02 2.8,-0.04c0.87,0 1.75,0 2.65,0c1.17,-0.01 1.17,-0.01 2.36,-0.02c2.07,0.25 2.07,0.25 5.07,2.25c1.57,3.73 1.06,8.03 1,12c-5.18,3.14 -9.09,3.42 -14.95,3.28c-0.9,-0.01 -1.8,-0.02 -2.73,-0.03c-12.72,-0.22 -25.42,-0.95 -38.12,-1.64c-3.42,-0.19 -6.84,-0.37 -10.26,-0.55c-6.65,-0.35 -13.3,-0.7 -19.95,-1.06c0,-0.33 0,-0.66 0,-1c23.51,-0.99 46.85,-1.39 70.36,-0.27c1.09,0.05 2.17,0.1 3.29,0.15c0.96,0.04 1.92,0.09 2.92,0.14c2.58,0.1 2.58,0.1 5.44,-1.02c0.8,-2.11 0.8,-2.11 1.18,-4.56c0.16,-0.83 0.32,-1.66 0.48,-2.51c0.11,-0.64 0.22,-1.28 0.34,-1.93c-1.01,0.01 -1.01,0.01 -2.04,0.03c-11.34,0.11 -22.64,-0.49 -33.97,-1.03c0,-0.33 0,-0.66 0,-1c8.05,-0.84 16.05,-1.13 24.13,-1.19z" fill="#647DA6" id="svg_31" transform="translate(364.125,798.8125)"/>
  <path d="m0,0c-1.75,4.88 -1.75,4.88 -4,6c-1.83,0.07 -3.65,0.07 -5.48,0.04c-1.15,-0.02 -2.3,-0.04 -3.48,-0.05c-1.26,-0.03 -2.51,-0.05 -3.8,-0.08c-1.93,-0.03 -1.93,-0.03 -3.91,-0.06c-2.75,-0.05 -5.49,-0.1 -8.24,-0.15c-3.47,-0.06 -6.94,-0.12 -10.41,-0.18c-27.36,-0.43 -27.36,-0.43 -40.68,-1.52c0,-0.66 0,-1.32 0,-2c58.34,-2.42 58.34,-2.42 80,-2z" fill="#56719A" id="svg_32" transform="translate(256,738)"/>
  <path d="m0,0c3.06,0.01 6.13,0 9.19,-0.01c27.73,-0.01 27.73,-0.01 34.81,3.14c0,0.33 0,0.66 0,1c-26.05,0.36 -51.98,-0.68 -78,-2c0,-0.33 0,-0.66 0,-1c11.34,-1.08 22.62,-1.15 34,-1.13z" fill="#7087AC" id="svg_36" transform="translate(335.995361328125,744.86962890625)"/>
  <path d="m0,0c0,0.33 0,0.66 0,1c-11.91,1.44 -23.68,2.19 -35.69,2.19c-1.75,0 -1.75,0 -3.54,0c-6.64,-0.04 -13.17,-0.38 -19.77,-1.19c0,-0.33 0,-0.66 0,-1c19.67,-1.14 39.31,-1.11 59,-1z" fill="#7C91B4" id="svg_37" transform="translate(331,802)"/>
  <path d="m0,0c1.37,0.02 1.37,0.02 2.78,0.04c0.92,0 1.84,0.01 2.78,0.02c0.71,0.01 1.42,0.03 2.15,0.04c0.03,1.48 0.05,2.96 0.07,4.44c0.01,0.82 0.02,1.64 0.03,2.49c-0.1,2.07 -0.1,2.07 -1.1,3.07c-1.68,0.07 -3.37,0.08 -5.06,0.06c-0.92,-0.01 -1.84,-0.02 -2.78,-0.03c-0.71,-0.01 -1.42,-0.02 -2.16,-0.03c-0.02,-1.48 -0.04,-2.96 -0.06,-4.44c-0.01,-0.82 -0.02,-1.65 -0.03,-2.5c0.14,-2.94 0.44,-3.03 3.38,-3.16z" fill="#EBF1F6" id="svg_38" transform="translate(735.28515625,312.90234375)"/>
  <path d="m0,0c0.49,1.49 0.49,1.49 1,3c-14.95,1.15 -30.09,1.96 -45,0c0,-0.33 0,-0.66 0,-1c4.5,-0.29 9,-0.57 13.49,-0.85c1.53,-0.1 3.06,-0.2 4.58,-0.3c8.65,-0.55 17.25,-1.02 25.93,-0.85z" fill="#6D85AA" id="svg_39" transform="translate(324,734)"/>
  <path d="m0,0c1.39,-0.02 1.39,-0.02 2.8,-0.04c0.87,0 1.75,0 2.65,0c1.17,-0.01 1.17,-0.01 2.36,-0.02c2.07,0.25 2.07,0.25 5.07,2.25c0.68,3.62 0.68,3.62 1,7c-0.67,0.33 -1.33,0.66 -2,1c0,-2.31 0,-4.62 0,-7c-1.01,0.01 -1.01,0.01 -2.04,0.03c-11.34,0.11 -22.64,-0.49 -33.97,-1.03c0,-0.33 0,-0.66 0,-1c8.05,-0.84 16.05,-1.13 24.13,-1.19z" fill="#6780A7" id="svg_40" transform="translate(364.125,798.8125)"/>
  <path d="m0,0c-4.66,4.95 -10.85,3.94 -17.33,4.16c-1.54,0.03 -3.07,0.06 -4.61,0.09c-0.74,0.02 -1.49,0.04 -2.26,0.07c-5.4,0.03 -5.4,0.03 -7.53,-1.84c-0.42,-0.49 -0.84,-0.98 -1.27,-1.48c3.62,-0.17 7.25,-0.34 10.87,-0.5c1.02,-0.05 2.03,-0.1 3.08,-0.14c6.35,-0.29 12.69,-0.42 19.05,-0.36z" fill="#6A82A8" id="svg_41" transform="translate(380,731)"/>
  <path d="m0,0c5.12,6.27 5.48,9.98 5,18c-1,3.69 -1,3.69 -2,6c-0.33,0 -0.66,0 -1,0c-0.34,-2.69 -0.67,-5.37 -1,-8.06c-0.1,-0.75 -0.19,-1.51 -0.29,-2.28c-0.56,-4.59 -0.81,-9.03 -0.71,-13.66z" fill="#667FA7" id="svg_42" transform="translate(841,860)"/>
  <path d="m0,0c0.66,0 1.32,0 2,0c-0.02,1.24 -0.05,2.48 -0.07,3.76c-0.02,1.64 -0.04,3.29 -0.05,4.93c-0.02,0.81 -0.04,1.63 -0.06,2.47c-0.03,4.51 0.34,7.66 2.18,11.84c-0.33,0.99 -0.66,1.98 -1,3c-4.68,-4.52 -5.61,-9.72 -6,-16c0.43,-3.58 1.38,-6.76 3,-10z" fill="#657EA5" id="svg_43" transform="translate(446,813)"/>
  <path d="m0,0c3.27,-0.09 6.54,-0.14 9.81,-0.19c0.93,-0.02 1.86,-0.05 2.82,-0.07c1.34,-0.02 1.34,-0.02 2.7,-0.03c1.24,-0.03 1.24,-0.03 2.49,-0.05c2.18,0.34 2.18,0.34 5.18,3.34c-7.59,0 -15.18,0 -23,0c0,-0.99 0,-1.98 0,-3z" fill="#657EA3" id="svg_46" transform="translate(272,684)"/>
  <path d="m0,0c2.15,0.28 4.29,0.57 6.44,0.88c1.19,0.16 2.39,0.32 3.62,0.49c1.45,0.31 1.45,0.31 2.94,0.63c0.33,0.66 0.66,1.32 1,2c-3.47,1.59 -6.18,2.59 -10,2c-2.31,-1.87 -2.31,-1.87 -4,-4c0,-0.66 0,-1.32 0,-2z" fill="#5D77A0" id="svg_47" transform="translate(816,891)"/>
  <path d="m0,0c2.17,0.51 4,1 6,2c0.41,2.32 0.74,4.66 1,7c-0.99,0.49 -0.99,0.49 -2,1c0,-2.31 0,-4.62 0,-7c-3.63,0 -7.26,0 -11,0c0,-0.33 0,-0.66 0,-1c1.98,0 3.96,0 6,0c0,-0.66 0,-1.32 0,-2z" fill="#7A91B8" id="svg_48" transform="translate(371,799)"/>
  <path d="m0,0c1.49,0.01 2.98,0.02 4.46,0.04c0.76,0 1.52,0 2.3,0.01c1.88,0.01 3.76,0.03 5.64,0.05c0,0.33 0,0.66 0,1c-0.99,0.09 -0.99,0.09 -2.01,0.18c-5.53,0.51 -5.53,0.51 -10.99,1.51c-0.66,0.1 -1.32,0.2 -2,0.31c-0.66,-0.66 -1.32,-1.32 -2,-2c1,-1 1,-1 4.6,-1.1z" fill="#506D99" id="svg_49" transform="translate(327.59765625,733.90234375)"/>
  <path d="m0,0c1.95,2.92 2.45,4.63 3,8c-1.71,-1.62 -3.37,-3.29 -5,-5c0,-0.66 0,-1.32 0,-2c0.66,-0.33 1.32,-0.66 2,-1z" fill="#6F87AD" id="svg_51" transform="translate(447,831)"/>
 </g>
</svg>